<svg xmlns="http://www.w3.org/2000/svg" viewBox="0 0 690.73 233.15"><defs><style>.cls-1{fill:#6dadde;}.cls-2{fill:#2d2222;}</style></defs><title>Asset 6</title><g id="Layer_2" data-name="Layer 2"><g id="Layer_1-2" data-name="Layer 1"><polyline class="cls-1" points="136.73 98.22 52.94 49.29 136.73 195.9"/><polyline class="cls-1" points="136.73 95.34 53.92 46.8 136.41 0"/><polyline class="cls-1" points="139.65 98.22 223.44 49.29 139.65 195.9"/><polyline class="cls-1" points="139.65 95.34 222.46 46.8 139.97 0"/><polyline class="cls-1" points="65.07 159.5 127.5 195.95 65.07 86.72"/><polyline class="cls-1" points="65.07 162.11 126.77 198.28 65.31 233.15"/><polyline class="cls-1" points="62.43 159.5 0 195.95 62.43 86.72"/><polyline class="cls-1" points="62.43 162.11 0.73 198.28 62.19 233.15"/><polyline class="cls-1" points="213.95 159.5 276.38 195.95 213.95 86.72"/><polyline class="cls-1" points="213.95 162.11 275.65 198.28 214.19 233.15"/><polyline class="cls-1" points="211.31 159.5 148.88 195.95 211.31 86.72"/><polyline class="cls-1" points="211.31 162.11 149.61 198.28 211.07 233.15"/><path class="cls-2" d="M307.24,162.11v-1.17q5.31,0,5.31-3.76V126.45q0-3.78-5.31-3.78V121.6h15.82a37.17,37.17,0,0,1,13.55,2.22,17.87,17.87,0,0,1,8.64,6.78,20.14,20.14,0,0,1,3,11.29q0,9.54-6.3,14.88t-18.43,5.34Zm11.62-5.48a2.61,2.61,0,0,0,2.95,3,25.56,25.56,0,0,0,10.86-2.09,14.51,14.51,0,0,0,6.66-6.08,19,19,0,0,0,2.24-9.46,19.38,19.38,0,0,0-2.38-9.94,15,15,0,0,0-6.72-6.15,23.24,23.24,0,0,0-10-2,5.65,5.65,0,0,0-3,.48c-.42.33-.62,1.19-.62,2.57Z"/><path class="cls-2" d="M377.18,150.47a15,15,0,0,0,1.57,2.94,2.52,2.52,0,0,0,2.17.92v.75h-10v-.75a6.6,6.6,0,0,0,2.16-.36,1,1,0,0,0,.6-1,11.87,11.87,0,0,0-1-3.06l-1.39-3.34H360.93s-.35.92-1,2.65a12.08,12.08,0,0,0-1,3.4c0,1.12.88,1.67,2.64,1.67v.75h-7.78v-.75a3.36,3.36,0,0,0,2.58-1.64,43.76,43.76,0,0,0,2.56-5.22l7.94-18.94h.8ZM361.62,145h9.16l-4.6-10.83Z"/><path class="cls-2" d="M403.68,155.08H392.74v-.75c2.31,0,3.46-.8,3.46-2.41V130.71h-2.82a12.5,12.5,0,0,0-2.79.24,2.87,2.87,0,0,0-1.67,1.32,9.2,9.2,0,0,0-1.13,3.46h-1l.28-6.62h22.23l.24,6.62h-1a9.08,9.08,0,0,0-1.1-3.46,2.9,2.9,0,0,0-1.67-1.32,12.32,12.32,0,0,0-2.76-.24h-2.83v21.21c0,1.61,1.16,2.41,3.46,2.41Z"/><path class="cls-2" d="M440.05,150.47a15,15,0,0,0,1.57,2.94,2.54,2.54,0,0,0,2.17.92v.75h-10v-.75a6.52,6.52,0,0,0,2.15-.36,1,1,0,0,0,.6-1,11.87,11.87,0,0,0-1-3.06l-1.39-3.34H423.81s-.36.92-1,2.65a11.88,11.88,0,0,0-1,3.4c0,1.12.88,1.67,2.64,1.67v.75h-7.77v-.75a3.34,3.34,0,0,0,2.57-1.64,42.24,42.24,0,0,0,2.56-5.22l7.95-18.94h.8ZM424.5,145h9.15l-4.6-10.83Z"/><path class="cls-2" d="M453.53,149.43H455a17.83,17.83,0,0,0,4.84,7.8,11.26,11.26,0,0,0,7.93,3.07,7.2,7.2,0,0,0,5.13-2,6.48,6.48,0,0,0,2.07-4.88,6.31,6.31,0,0,0-.37-2.22,7.94,7.94,0,0,0-2.89-4.36c-1.39-1-3.71-2.48-7-4.4a29.45,29.45,0,0,1-7.11-5.39,9.43,9.43,0,0,1-2.27-6.51,9.72,9.72,0,0,1,1.46-5.29,9.89,9.89,0,0,1,4-3.6,11.75,11.75,0,0,1,5.46-1.28,17.07,17.07,0,0,1,5.49,1,19.7,19.7,0,0,0,3.42,1c.89,0,1.58-.66,2-2h1.35l1.27,13h-1.55a15.67,15.67,0,0,0-4-7.57,9.75,9.75,0,0,0-7.19-3.05,6.75,6.75,0,0,0-4.6,1.57,5.65,5.65,0,0,0-1.78,4.46q0,3.71,6.55,7.64,6.16,3.67,8.52,5.24a14.25,14.25,0,0,1,3.78,3.87,10.82,10.82,0,0,1,.07,11.28,11.56,11.56,0,0,1-4.48,4.16,14.3,14.3,0,0,1-6.91,1.59,19.64,19.64,0,0,1-5.56-1,20.25,20.25,0,0,0-4-1c-1,0-1.64.66-1.81,2h-1.34Z"/><path class="cls-2" d="M514.07,137.4h-.87a12.08,12.08,0,0,0-1.75-3.85,8.23,8.23,0,0,0-2.89-2.56,8.38,8.38,0,0,0-3.94-.91,7.79,7.79,0,0,0-6.92,3.39q-2.29,3.38-2.29,9a14.94,14.94,0,0,0,1,5.49,9.46,9.46,0,0,0,3.14,4.26,8.2,8.2,0,0,0,5.17,1.65,12.11,12.11,0,0,0,4.95-.94,16.14,16.14,0,0,0,4.87-3.88l.69.76a15,15,0,0,1-5.28,4.44,13,13,0,0,1-5.62,1.35,14.8,14.8,0,0,1-6.95-1.6,11.56,11.56,0,0,1-4.84-4.66,15.51,15.51,0,0,1-.77-12.63,12.9,12.9,0,0,1,2.81-4.34,12.75,12.75,0,0,1,4.29-2.84,14.29,14.29,0,0,1,5.4-1,12.25,12.25,0,0,1,2.62.24q1,.24,2.46.72a7.45,7.45,0,0,0,1.94.47c.67,0,1.21-.47,1.61-1.43h.81Z"/><path class="cls-2" d="M536.15,151.92q0,2.42,3.81,2.41v.75H528.31v-.75q3.81,0,3.81-2.41V132.21q0-2.42-3.81-2.41v-.69H540v.69q-3.81,0-3.81,2.41Z"/><path class="cls-2" d="M553.49,155.08v-.75c2.3,0,3.46-.8,3.46-2.41V132.21c0-1.61-1.16-2.41-3.46-2.41v-.69H574.4v5.58h-.87c-.59-2.69-2.08-4-4.49-4H562.7c-1.16,0-1.73.52-1.73,1.56v8.41h5.52a6.86,6.86,0,0,0,3.6-.8,3.14,3.14,0,0,0,1.31-2.94h.8v9.21h-.8c0-2.57-1.63-3.85-4.91-3.85H561v9.68c0,1,.33,1.54,1,1.54h5.25a18.14,18.14,0,0,0,3.36-.25,5.38,5.38,0,0,0,2.57-1.34,9.09,9.09,0,0,0,2.24-3.41h1.09l-1.73,6.62Z"/><path class="cls-2" d="M613,155.6h-.63L594.89,134v17.92q0,2.42,3.79,2.41v.75h-9.32v-.75q3.85,0,3.85-2.41V132l-.34-.41a8,8,0,0,0-1.57-1.45,4.79,4.79,0,0,0-1.94-.33v-.69h6.74l15.08,18.83V132.21q0-2.42-3.79-2.41v-.69h9.38v.69q-3.79,0-3.8,2.41Z"/><path class="cls-2" d="M653.3,137.4h-.87a12.28,12.28,0,0,0-1.74-3.85,8.26,8.26,0,0,0-2.9-2.56,8.35,8.35,0,0,0-3.94-.91,7.8,7.8,0,0,0-6.92,3.39,15.83,15.83,0,0,0-2.29,9,15.15,15.15,0,0,0,1,5.49,9.53,9.53,0,0,0,3.14,4.26,8.2,8.2,0,0,0,5.17,1.65,12.11,12.11,0,0,0,4.95-.94,16.14,16.14,0,0,0,4.87-3.88l.69.76a15,15,0,0,1-5.27,4.44,13,13,0,0,1-5.63,1.35,14.83,14.83,0,0,1-7-1.6,11.53,11.53,0,0,1-4.83-4.66,14.19,14.19,0,0,1-1.76-7.23,14.61,14.61,0,0,1,1-5.4,12.92,12.92,0,0,1,2.82-4.34,12.62,12.62,0,0,1,4.28-2.84,14.29,14.29,0,0,1,5.4-1,12.12,12.12,0,0,1,2.62.24q1,.24,2.46.72a7.54,7.54,0,0,0,1.94.47c.68,0,1.21-.47,1.62-1.43h.8Z"/><path class="cls-2" d="M667.55,155.08v-.75c2.3,0,3.46-.8,3.46-2.41V132.21c0-1.61-1.16-2.41-3.46-2.41v-.69h20.91v5.58h-.87c-.59-2.69-2.08-4-4.49-4h-6.34c-1.16,0-1.73.52-1.73,1.56v8.41h5.52a6.86,6.86,0,0,0,3.6-.8,3.14,3.14,0,0,0,1.31-2.94h.8v9.21h-.8c0-2.57-1.63-3.85-4.91-3.85H675v9.68c0,1,.33,1.54,1,1.54h5.25a18.14,18.14,0,0,0,3.36-.25,5.38,5.38,0,0,0,2.57-1.34,9.09,9.09,0,0,0,2.24-3.41h1.1l-1.74,6.62Z"/><path class="cls-2" d="M250.27,76.36C250.27,61.59,260,42.5,286,42.5c21.52,0,34.91,12.53,34.91,32.31S307,110.23,285.09,110.23C260.29,110.23,250.27,91.66,250.27,76.36ZM308.76,78c0-19.36-11.14-31.37-25.31-31.37-9.94,0-21.26,5.53-21.26,27.05,0,18,9.94,32.22,26.53,32.22C294.76,105.91,308.76,103,308.76,78Z"/><path class="cls-2" d="M349.72,84c0,11.06,0,17,1.81,18.57,1.47,1.3,3.71,1.9,10.45,1.9,4.58,0,7.95-.08,10.11-2.42a10.86,10.86,0,0,0,2.25-5.18c.08-.78.26-1.3,1-1.3S376,96,376,97a68.57,68.57,0,0,1-1.3,9.94c-.52,1.9-.95,2.33-5.44,2.33-6.22,0-10.71-.17-14.6-.26s-7-.26-10.54-.26c-1,0-2.85,0-4.92.09s-4.24.17-6,.17c-1.12,0-1.72-.26-1.72-.86,0-.43.34-.69,1.38-.69a14.29,14.29,0,0,0,3.11-.35c1.73-.34,2.16-2.24,2.5-4.75.44-3.63.44-10.45.44-18.4V68.76c0-13.13,0-15.55-.18-18.31-.17-2.94-.86-4.32-3.71-4.93a13,13,0,0,0-2.85-.26c-.95,0-1.47-.17-1.47-.78s.6-.77,1.9-.77c4.06,0,9.5.26,11.84.26,2.07,0,8.38-.26,11.75-.26,1.2,0,1.81.17,1.81.77s-.52.78-1.56.78a23.2,23.2,0,0,0-3.36.26c-2.34.43-3,1.9-3.2,4.93-.17,2.76-.17,5.18-.17,18.31Z"/><path class="cls-2" d="M397.41,86.65a18.39,18.39,0,0,0-2-9.08c-.6-1.38-12.18-20.39-15.2-24.88a21.06,21.06,0,0,0-6-6.3,8.71,8.71,0,0,0-3.62-1.13c-.7,0-1.3-.17-1.3-.78s.6-.77,1.64-.77c1.56,0,8,.26,10.89.26,1.81,0,5.35-.26,9.24-.26.87,0,1.3.26,1.3.77s-.61.61-1.9,1A1.55,1.55,0,0,0,389.29,47a8.06,8.06,0,0,0,1,2.94c1.21,2.59,13.31,23.41,14.69,25.83.86-2.07,11.75-21.08,13-23.76a11.33,11.33,0,0,0,1.21-4.49,2.06,2.06,0,0,0-1.81-2.16c-.78-.17-1.56-.35-1.56-.87s.43-.77,1.47-.77c2.85,0,5.62.26,8.12.26,1.9,0,7.6-.26,9.24-.26,1,0,1.56.17,1.56.69s-.69.86-1.64.86a9.32,9.32,0,0,0-3.8,1c-1.82.86-2.77,1.9-4.67,4.23C423.24,54,411.15,74.29,409.59,78a20.59,20.59,0,0,0-1.3,8.64v7.08c0,1.38,0,5,.26,8.64.18,2.51.95,4.41,3.55,4.75a37,37,0,0,0,4.31.35c1,0,1.39.26,1.39.69,0,.6-.69.86-1.82.86-5.44,0-10.88-.26-13.22-.26-2.15,0-7.6.26-10.79.26-1.21,0-1.9-.17-1.9-.86,0-.43.43-.69,1.38-.69a14,14,0,0,0,3-.35c1.73-.34,2.51-2.24,2.68-4.75.26-3.63.26-7.26.26-8.64Z"/><path class="cls-2" d="M448.13,44.05c.26-1.47.77-2.24,1.46-2.24s1.21.43,2.34,2.67l23.58,48.73L499,43.88c.69-1.38,1.13-2.07,1.9-2.07s1.3.86,1.56,2.67l7.86,53.4c.78,5.44,1.64,8,4.23,8.72a17.31,17.31,0,0,0,5.36.87c.78,0,1.38.08,1.38.6,0,.69-1,1-2.24,1-2.16,0-14.09-.26-17.54-.52-2-.17-2.51-.43-2.51-1s.35-.69.95-1,.78-1.29.44-3.71l-5.19-38h-.34L476,104.1c-2,4.06-2.42,4.84-3.2,4.84s-1.64-1.73-3-4.32c-2.07-4-8.9-17.2-9.93-19.62-.78-1.81-6-12.7-9-19.18h-.35l-4.49,34.39a34.74,34.74,0,0,0-.26,4.06c0,1.64,1.13,2.42,2.6,2.76a16.45,16.45,0,0,0,3.62.44c.69,0,1.3.17,1.3.6,0,.78-.78,1-2.07,1-3.63,0-7.52-.26-9.08-.26s-5.78.26-8.55.26c-.86,0-1.55-.17-1.55-1,0-.43.52-.6,1.38-.6a11,11,0,0,0,2.59-.26c2.42-.52,3.11-3.89,3.54-6.83Z"/><path class="cls-2" d="M535,68.76c0-13.13,0-15.55-.17-18.31-.17-2.94-.86-4.32-3.71-4.93a18,18,0,0,0-3.37-.26c-.95,0-1.47-.17-1.47-.78s.6-.77,1.9-.77c4.58,0,10,.26,12.44.26,3.54,0,8.55-.26,12.53-.26,10.8,0,14.68,3.63,16.07,4.92a15,15,0,0,1,4.32,10.28c0,12.27-9,20.91-21.26,20.91a12.2,12.2,0,0,1-1.81-.09c-.43-.08-1-.17-1-.77s.61-.95,2.42-.95c4.84,0,11.58-5.45,11.58-14.26,0-2.85-.26-8.64-5.1-13a12.84,12.84,0,0,0-8.64-3.37,12.21,12.21,0,0,0-3.37.35c-.43.17-.69.69-.69,1.64V84c0,8,0,14.77.43,18.49.26,2.42.78,4.32,3.37,4.66a37,37,0,0,0,4.41.35c1,0,1.38.26,1.38.69,0,.6-.69.86-1.64.86-5.7,0-11.15-.26-13.39-.26-2,0-7.43.26-10.89.26-1.12,0-1.72-.26-1.72-.86,0-.43.34-.69,1.38-.69a14.29,14.29,0,0,0,3.11-.35c1.72-.34,2.16-2.24,2.5-4.75.43-3.63.43-10.45.43-18.4Z"/><path class="cls-2" d="M591.64,68.76c0-13.13,0-15.55-.18-18.31-.17-2.94-1-4.41-2.93-4.84a12.26,12.26,0,0,0-3.11-.35c-.87,0-1.39-.17-1.39-.86,0-.52.69-.69,2.08-.69,3.28,0,8.72.26,11.23.26,2.16,0,7.26-.26,10.54-.26,1.12,0,1.81.17,1.81.69,0,.69-.52.86-1.38.86a14.92,14.92,0,0,0-2.59.26c-2.33.43-3,1.9-3.2,4.93-.17,2.76-.17,5.18-.17,18.31V84c0,8.38,0,15.2.35,18.92.25,2.33.86,3.89,3.45,4.23a37,37,0,0,0,4.41.35c1,0,1.38.26,1.38.69,0,.6-.69.86-1.64.86-5.7,0-11.15-.26-13.48-.26-2,0-7.43.26-10.89.26-1.12,0-1.72-.26-1.72-.86,0-.43.34-.69,1.38-.69a14.29,14.29,0,0,0,3.11-.35c1.73-.34,2.25-1.81,2.5-4.32.44-3.63.44-10.45.44-18.83Z"/><path class="cls-2" d="M642.79,86.47c-.44,0-.61.18-.78.69l-4.67,12.36a16.81,16.81,0,0,0-1.29,5.27c0,1.55.77,2.68,3.45,2.68h1.3c1,0,1.29.17,1.29.69,0,.69-.51.86-1.47.86-2.76,0-6.47-.26-9.15-.26-1,0-5.71.26-10.2.26-1.12,0-1.64-.17-1.64-.86,0-.52.35-.69,1-.69a25.28,25.28,0,0,0,2.68-.18c4-.51,5.61-3.45,7.34-7.77l21.68-54.26c1-2.5,1.56-3.45,2.42-3.45s1.3.77,2.16,2.76c2.08,4.75,15.9,40,21.43,53.13,3.28,7.78,5.79,9,7.6,9.42a18.94,18.94,0,0,0,3.63.35c.69,0,1.12.08,1.12.69s-.77.86-4,.86-9.42,0-16.33-.17c-1.55-.09-2.59-.09-2.59-.69s.34-.69,1.21-.78a1.41,1.41,0,0,0,.78-2l-6.92-18.31a.83.83,0,0,0-.86-.61Zm17.62-4.32c.43,0,.52-.26.43-.51L653.07,60.3c-.09-.35-.18-.78-.44-.78s-.43.43-.51.78l-8,21.25c-.09.34,0,.6.34.6Z"/></g></g></svg>