<svg xmlns="http://www.w3.org/2000/svg" xmlns:xlink="http://www.w3.org/1999/xlink" viewBox="0 0 608.5 500.69"><defs><style>.cls-1,.cls-10,.cls-11,.cls-12,.cls-2,.cls-3,.cls-4,.cls-5,.cls-6,.cls-7,.cls-8,.cls-9{stroke:#fff;stroke-miterlimit:10;}.cls-1{fill:url(#White_Black);}.cls-2{fill:url(#White_Black-2);}.cls-3{fill:url(#White_Black-3);}.cls-4{fill:url(#White_Black-4);}.cls-5{fill:url(#White_Black-5);}.cls-6{fill:url(#White_Black-6);}.cls-7{fill:url(#White_Black-7);}.cls-8{fill:url(#White_Black-8);}.cls-9{fill:url(#White_Black-9);}.cls-10{fill:url(#White_Black-10);}.cls-11{fill:url(#White_Black-11);}.cls-12{fill:url(#White_Black-12);}</style><linearGradient id="White_Black" x1="130.33" y1="201.13" x2="478.33" y2="201.13" gradientUnits="userSpaceOnUse"><stop offset="0" stop-color="#fff"/><stop offset="1" stop-color="#231f20"/></linearGradient><linearGradient id="White_Black-2" x1="305.11" y1="250.35" x2="475.96" y2="250.35" xlink:href="#White_Black"/><linearGradient id="White_Black-3" x1="132.33" y1="101.03" x2="476.33" y2="101.03" xlink:href="#White_Black"/><linearGradient id="White_Black-4" x1="132.39" y1="250.77" x2="304.12" y2="250.77" xlink:href="#White_Black"/><linearGradient id="White_Black-5" x1="347" y1="350.08" x2="607.5" y2="350.08" xlink:href="#White_Black"/><linearGradient id="White_Black-6" x1="477.82" y1="313.62" x2="605.37" y2="313.62" xlink:href="#White_Black"/><linearGradient id="White_Black-7" x1="349.36" y1="312.9" x2="477.12" y2="312.9" xlink:href="#White_Black"/><linearGradient id="White_Black-8" x1="349" y1="424.91" x2="605.5" y2="424.91" xlink:href="#White_Black"/><linearGradient id="White_Black-9" x1="1" y1="349.98" x2="261.51" y2="349.98" xlink:href="#White_Black"/><linearGradient id="White_Black-10" x1="131.98" y1="313.52" x2="259.37" y2="313.52" xlink:href="#White_Black"/><linearGradient id="White_Black-11" x1="3.37" y1="312.81" x2="131.12" y2="312.81" xlink:href="#White_Black"/><linearGradient id="White_Black-12" x1="3" y1="424.82" x2="259.51" y2="424.82" xlink:href="#White_Black"/></defs><title>Asset 33</title><g id="Layer_2" data-name="Layer 2"><g id="Layer_1-2" data-name="Layer 1"><polygon class="cls-1" points="305.12 400.3 477.69 101.4 478.33 101.03 304.58 0.72 304.33 0.58 130.33 101.03 130.73 101.27 130.69 101.29 304.33 401.68 304.7 401.04 305.12 401.04 305.12 400.3"/><polygon class="cls-2" points="305.12 398.3 305.12 201.04 305.12 201.04 475.96 102.4 305.12 398.3"/><polygon class="cls-3" points="304.33 1.73 476.33 101.03 304.33 200.34 132.33 101.03 304.33 1.73"/><polygon class="cls-4" points="304.08 201.35 304.12 201.38 304.12 399.33 132.39 102.22 304.08 201.35"/><polygon class="cls-5" points="607.08 424.67 607.09 424.66 478.12 201.55 478.12 201.04 477.83 201.04 477.68 200.79 477.25 200.04 347.63 424.55 347 424.91 477 499.97 477.25 500.11 606.75 425.34 607.5 424.91 607.08 424.67"/><polygon class="cls-6" points="605.37 423.68 477.82 350.04 478.12 350.04 478.12 203.55 605.37 423.68"/><polygon class="cls-7" points="477.12 349.78 349.36 423.55 477.12 202.25 477.12 349.78"/><polygon class="cls-8" points="477.25 498.96 349 424.91 477.25 350.86 605.5 424.91 477.25 498.96"/><polygon class="cls-9" points="261.09 424.57 132.12 201.46 132.12 201.04 131.88 201.04 131.69 200.7 131.25 199.95 1.63 424.45 1 424.82 131 499.88 131.25 500.02 260.75 425.25 261.5 424.82 261.08 424.57 261.09 424.57"/><polygon class="cls-10" points="259.37 423.59 131.98 350.04 132.12 350.04 132.12 203.45 259.37 423.59"/><polygon class="cls-11" points="131.12 349.69 3.37 423.45 131.12 202.17 131.12 349.69"/><polygon class="cls-12" points="131.25 498.87 3 424.82 131.25 350.77 259.5 424.82 131.25 498.87"/></g></g></svg>