<svg xmlns="http://www.w3.org/2000/svg" viewBox="0 0 758.92 291.43"><defs><style>.cls-1{fill:#6dadde;}.cls-2{fill:#2d2222;}</style></defs><title>Asset 5</title><g id="Layer_2" data-name="Layer 2"><g id="Layer_1-2" data-name="Layer 1"><polyline class="cls-1" points="170.92 122.77 66.18 61.61 170.92 244.87"/><polyline class="cls-1" points="170.92 119.18 67.4 58.5 170.52 0"/><polyline class="cls-1" points="174.56 122.77 279.3 61.61 174.56 244.87"/><polyline class="cls-1" points="174.56 119.18 278.08 58.5 174.96 0"/><polyline class="cls-1" points="81.34 199.37 159.37 244.94 81.34 108.4"/><polyline class="cls-1" points="81.34 202.64 158.46 247.84 81.64 291.43"/><polyline class="cls-1" points="78.03 199.37 0 244.94 78.03 108.4"/><polyline class="cls-1" points="78.03 202.64 0.91 247.84 77.74 291.43"/><polyline class="cls-1" points="267.44 199.37 345.48 244.94 267.44 108.4"/><polyline class="cls-1" points="267.44 202.64 344.57 247.84 267.74 291.43"/><polyline class="cls-1" points="264.14 199.37 186.1 244.94 264.14 108.4"/><polyline class="cls-1" points="264.14 202.64 187.01 247.84 263.84 291.43"/><path class="cls-2" d="M375.43,203.34v-1.16q5.29,0,5.3-3.77V167.68q0-3.78-5.3-3.78v-1.07h15.82a37.11,37.11,0,0,1,13.54,2.22,17.89,17.89,0,0,1,8.65,6.78,20.13,20.13,0,0,1,3,11.29q0,9.56-6.3,14.88t-18.42,5.34ZM387,197.86a2.62,2.62,0,0,0,3,3,25.39,25.39,0,0,0,10.85-2.1,14.52,14.52,0,0,0,6.67-6.07,19.11,19.11,0,0,0,2.24-9.47,19.48,19.48,0,0,0-2.38-9.94,15,15,0,0,0-6.72-6.15,23.43,23.43,0,0,0-10-2,5.85,5.85,0,0,0-3,.47c-.41.33-.62,1.19-.62,2.58Z"/><path class="cls-2" d="M445.36,191.7a14.65,14.65,0,0,0,1.58,2.94,2.49,2.49,0,0,0,2.16.93v.74h-10v-.74a6.74,6.74,0,0,0,2.15-.37,1,1,0,0,0,.61-1,12.32,12.32,0,0,0-1-3.06l-1.4-3.33H429.12l-1,2.64a12,12,0,0,0-1,3.4c0,1.12.88,1.68,2.65,1.68v.74h-7.78v-.74a3.35,3.35,0,0,0,2.57-1.65,42.24,42.24,0,0,0,2.56-5.22L435,169.76h.8Zm-15.55-5.47H439l-4.6-10.83Z"/><path class="cls-2" d="M471.87,196.31H460.93v-.74c2.3,0,3.46-.81,3.46-2.42V171.94h-2.83a12.34,12.34,0,0,0-2.78.24,2.89,2.89,0,0,0-1.68,1.32A9.47,9.47,0,0,0,456,177h-1l.29-6.62h22.23l.24,6.62h-1a9.17,9.17,0,0,0-1.09-3.46,2.89,2.89,0,0,0-1.68-1.32,12.16,12.16,0,0,0-2.75-.24h-2.83v21.21c0,1.61,1.15,2.42,3.46,2.42Z"/><path class="cls-2" d="M508.24,191.7a14.73,14.73,0,0,0,1.57,2.94,2.5,2.5,0,0,0,2.17.93v.74H502v-.74a6.82,6.82,0,0,0,2.16-.37,1,1,0,0,0,.6-1,11.87,11.87,0,0,0-1-3.06l-1.39-3.33H492s-.35.92-1,2.64a12.18,12.18,0,0,0-1,3.4q0,1.68,2.64,1.68v.74h-7.78v-.74a3.37,3.37,0,0,0,2.58-1.65,43.76,43.76,0,0,0,2.56-5.22l7.94-18.94h.8Zm-15.56-5.47h9.16l-4.6-10.83Z"/><path class="cls-2" d="M521.72,190.66h1.42a17.9,17.9,0,0,0,4.83,7.8,11.25,11.25,0,0,0,7.93,3.07,7.21,7.21,0,0,0,5.14-2,6.45,6.45,0,0,0,2.06-4.88,6.54,6.54,0,0,0-.36-2.22,8,8,0,0,0-2.9-4.36q-2.08-1.51-7-4.4a29.57,29.57,0,0,1-7.1-5.39,9.4,9.4,0,0,1-2.28-6.51,9.81,9.81,0,0,1,1.46-5.29,10.13,10.13,0,0,1,4-3.6,11.68,11.68,0,0,1,5.45-1.28,17.08,17.08,0,0,1,5.5,1,18.5,18.5,0,0,0,3.42,1c.89,0,1.57-.65,2.05-2h1.35l1.27,13h-1.55a15.61,15.61,0,0,0-4-7.57,9.71,9.71,0,0,0-7.18-3,6.69,6.69,0,0,0-4.6,1.58,5.63,5.63,0,0,0-1.79,4.46q0,3.69,6.56,7.63,6.15,3.67,8.52,5.25a14.35,14.35,0,0,1,3.78,3.86,10.82,10.82,0,0,1,.07,11.28,11.47,11.47,0,0,1-4.49,4.17,14.38,14.38,0,0,1-6.9,1.58,19.35,19.35,0,0,1-5.57-1,20,20,0,0,0-4-1c-1,0-1.65.65-1.81,2H523.6Z"/><path class="cls-2" d="M582.25,178.64h-.87a11.9,11.9,0,0,0-1.74-3.86,8.05,8.05,0,0,0-6.84-3.47,7.77,7.77,0,0,0-6.91,3.39,15.8,15.8,0,0,0-2.3,9,15,15,0,0,0,1,5.5,9.62,9.62,0,0,0,3.13,4.26,8.28,8.28,0,0,0,5.18,1.64,12.18,12.18,0,0,0,5-.94,16.24,16.24,0,0,0,4.86-3.88l.69.76a15,15,0,0,1-5.27,4.44,13,13,0,0,1-5.63,1.35,14.76,14.76,0,0,1-6.94-1.6,11.48,11.48,0,0,1-4.84-4.65A15.51,15.51,0,0,1,560,178a12.69,12.69,0,0,1,2.81-4.35,12.56,12.56,0,0,1,4.29-2.84,14.49,14.49,0,0,1,5.4-1,12.08,12.08,0,0,1,2.61.24q1,.24,2.46.72a7.27,7.27,0,0,0,1.94.48q1,0,1.62-1.44h.8Z"/><path class="cls-2" d="M604.33,193.15q0,2.41,3.81,2.42v.74H596.5v-.74q3.81,0,3.81-2.42v-19.7c0-1.62-1.27-2.42-3.81-2.42v-.69h11.64V171c-2.54,0-3.81.8-3.81,2.42Z"/><path class="cls-2" d="M621.67,196.31v-.74c2.31,0,3.46-.81,3.46-2.42v-19.7c0-1.62-1.15-2.42-3.46-2.42v-.69h20.91v5.58h-.87q-.87-4-4.48-4h-6.35c-1.15,0-1.73.52-1.73,1.56v8.41h5.53a6.86,6.86,0,0,0,3.6-.81,3.15,3.15,0,0,0,1.31-2.93h.8v9.21h-.8q0-3.86-4.91-3.86h-5.53v9.68c0,1,.33,1.55,1,1.55h5.24a18,18,0,0,0,3.36-.26,5.38,5.38,0,0,0,2.58-1.33,9.13,9.13,0,0,0,2.23-3.42h1.1l-1.73,6.62Z"/><path class="cls-2" d="M681.16,196.83h-.64l-17.45-21.6v17.92q0,2.41,3.8,2.42v.74h-9.32v-.74c2.56,0,3.85-.81,3.85-2.42V173.22l-.34-.41a7.8,7.8,0,0,0-1.57-1.44,4.79,4.79,0,0,0-1.94-.34v-.69h6.73l15.09,18.83V173.45c0-1.62-1.27-2.42-3.8-2.42v-.69H685V171c-2.53,0-3.79.8-3.79,2.42Z"/><path class="cls-2" d="M721.49,178.64h-.87a12.13,12.13,0,0,0-1.75-3.86,8,8,0,0,0-6.83-3.47,7.79,7.79,0,0,0-6.92,3.39,15.8,15.8,0,0,0-2.29,9,15,15,0,0,0,1,5.5,9.56,9.56,0,0,0,3.14,4.26,8.26,8.26,0,0,0,5.17,1.64,12.14,12.14,0,0,0,5-.94,16.26,16.26,0,0,0,4.87-3.88l.68.76a14.9,14.9,0,0,1-5.27,4.44,13,13,0,0,1-5.62,1.35,14.8,14.8,0,0,1-7-1.6,11.53,11.53,0,0,1-4.84-4.65A15.51,15.51,0,0,1,699.2,178a12.6,12.6,0,0,1,7.1-7.19,14.49,14.49,0,0,1,5.4-1,12.25,12.25,0,0,1,2.62.24q1,.24,2.46.72a7.1,7.1,0,0,0,1.94.48c.67,0,1.21-.48,1.61-1.44h.81Z"/><path class="cls-2" d="M735.73,196.31v-.74c2.31,0,3.46-.81,3.46-2.42v-19.7c0-1.62-1.15-2.42-3.46-2.42v-.69h20.91v5.58h-.87q-.87-4-4.48-4h-6.35c-1.15,0-1.73.52-1.73,1.56v8.41h5.53a6.86,6.86,0,0,0,3.6-.81,3.15,3.15,0,0,0,1.31-2.93h.8v9.21h-.8q0-3.86-4.91-3.86h-5.53v9.68c0,1,.33,1.55,1,1.55h5.24a18.22,18.22,0,0,0,3.37-.26,5.4,5.4,0,0,0,2.57-1.33,9.13,9.13,0,0,0,2.23-3.42h1.1L757,196.31Z"/><path class="cls-2" d="M318.46,117.6c0-14.78,9.76-33.87,35.68-33.87,21.51,0,34.9,12.53,34.9,32.31s-13.82,35.42-35.77,35.42C328.48,151.46,318.46,132.89,318.46,117.6ZM377,119.24c0-19.35-11.15-31.36-25.32-31.36-9.93,0-21.25,5.53-21.25,27,0,18,9.93,32.23,26.52,32.23C363,147.15,377,144.21,377,119.24Z"/><path class="cls-2" d="M417.9,125.2c0,11.06,0,17,1.82,18.58,1.46,1.29,3.71,1.9,10.45,1.9,4.58,0,7.95-.09,10.11-2.42a10.92,10.92,0,0,0,2.24-5.19c.09-.77.26-1.29,1-1.29s.7.43.7,1.47a68.29,68.29,0,0,1-1.3,9.93c-.52,1.9-.95,2.33-5.44,2.33-6.22,0-10.72-.17-14.6-.25s-7-.26-10.54-.26c-1,0-2.85,0-4.93.08s-4.23.18-6,.18c-1.12,0-1.73-.26-1.73-.87,0-.43.35-.69,1.38-.69a13.55,13.55,0,0,0,3.11-.35c1.73-.34,2.16-2.24,2.51-4.75.43-3.63.43-10.45.43-18.4V110c0-13.13,0-15.55-.17-18.31-.17-2.94-.87-4.32-3.72-4.93a13,13,0,0,0-2.85-.25c-.95,0-1.47-.18-1.47-.78s.61-.78,1.91-.78c4.06,0,9.5.26,11.83.26,2.07,0,8.38-.26,11.75-.26,1.21,0,1.81.17,1.81.78s-.51.78-1.55.78a23.39,23.39,0,0,0-3.37.25c-2.33.44-3,1.91-3.2,4.93-.17,2.76-.17,5.18-.17,18.31Z"/><path class="cls-2" d="M465.59,127.88a18.33,18.33,0,0,0-2-9.07c-.61-1.38-12.18-20.39-15.21-24.88a21.11,21.11,0,0,0-6-6.31,8.68,8.68,0,0,0-3.63-1.12c-.69,0-1.29-.18-1.29-.78s.6-.78,1.64-.78c1.55,0,8,.26,10.88.26,1.82,0,5.36-.26,9.25-.26q1.29,0,1.29.78c0,.52-.6.6-1.9,1a1.56,1.56,0,0,0-1.21,1.55,8.11,8.11,0,0,0,1,2.94c1.21,2.59,13.3,23.41,14.69,25.83.86-2.07,11.75-21.08,13-23.76a11.29,11.29,0,0,0,1.21-4.49,2.07,2.07,0,0,0-1.82-2.16c-.78-.17-1.55-.34-1.55-.86s.43-.78,1.47-.78c2.85,0,5.61.26,8.12.26,1.9,0,7.6-.26,9.24-.26.95,0,1.56.17,1.56.69s-.7.87-1.65.87a9.36,9.36,0,0,0-3.8,1c-1.81.87-2.76,1.9-4.66,4.24-2.85,3.45-14.95,23.75-16.5,27.47a20.61,20.61,0,0,0-1.3,8.64V135c0,1.39,0,5,.26,8.64.17,2.51.95,4.41,3.54,4.75a34.93,34.93,0,0,0,4.32.35c.95,0,1.38.26,1.38.69,0,.61-.69.87-1.81.87-5.44,0-10.89-.26-13.22-.26-2.16,0-7.6.26-10.8.26-1.21,0-1.9-.18-1.9-.87,0-.43.43-.69,1.38-.69a13.5,13.5,0,0,0,3-.35c1.73-.34,2.5-2.24,2.68-4.75.25-3.63.25-7.25.25-8.64Z"/><path class="cls-2" d="M516.31,85.29c.26-1.47.78-2.25,1.47-2.25s1.21.43,2.33,2.68l23.59,48.72,23.5-49.33c.69-1.38,1.12-2.07,1.9-2.07s1.3.86,1.55,2.68l7.87,53.39c.77,5.44,1.64,7.95,4.23,8.73a17.48,17.48,0,0,0,5.36.86c.77,0,1.38.09,1.38.6,0,.7-1,1-2.25,1-2.16,0-14.08-.26-17.54-.52-2-.18-2.5-.44-2.5-1s.34-.69.95-.95.78-1.3.43-3.72l-5.18-38h-.35l-18.83,39.22c-2,4.06-2.42,4.84-3.2,4.84s-1.64-1.73-3-4.32c-2.08-4-8.9-17.19-9.94-19.61-.78-1.82-6-12.7-9-19.18h-.35l-4.49,34.38a34.87,34.87,0,0,0-.26,4.06c0,1.65,1.12,2.42,2.59,2.77a17.1,17.1,0,0,0,3.63.43c.69,0,1.3.17,1.3.6,0,.78-.78,1-2.08,1-3.63,0-7.51-.26-9.07-.26s-5.79.26-8.55.26c-.87,0-1.56-.18-1.56-1,0-.43.52-.6,1.39-.6a11.08,11.08,0,0,0,2.59-.26c2.42-.52,3.11-3.89,3.54-6.82Z"/><path class="cls-2" d="M603.23,110c0-13.13,0-15.55-.17-18.31-.17-2.94-.87-4.32-3.72-4.93A18.11,18.11,0,0,0,596,86.5c-1,0-1.46-.18-1.46-.78s.6-.78,1.9-.78c4.57,0,10,.26,12.44.26,3.54,0,8.55-.26,12.52-.26,10.8,0,14.69,3.63,16.07,4.93a15,15,0,0,1,4.32,10.28c0,12.26-9,20.9-21.25,20.9a13.71,13.71,0,0,1-1.81-.08c-.44-.09-1-.18-1-.78s.6-1,2.42-1c4.84,0,11.57-5.44,11.57-14.26,0-2.85-.25-8.64-5.09-13a12.83,12.83,0,0,0-8.64-3.36,12.22,12.22,0,0,0-3.37.34c-.43.17-.69.69-.69,1.64V125.2c0,8,0,14.77.43,18.49.26,2.42.78,4.32,3.37,4.66a35,35,0,0,0,4.4.35c1,0,1.39.26,1.39.69,0,.61-.69.87-1.64.87-5.71,0-11.15-.26-13.4-.26-2,0-7.43.26-10.88.26-1.12,0-1.73-.26-1.73-.87,0-.43.35-.69,1.38-.69a13.55,13.55,0,0,0,3.11-.35c1.73-.34,2.16-2.24,2.51-4.75.43-3.63.43-10.45.43-18.4Z"/><path class="cls-2" d="M659.82,110c0-13.13,0-15.55-.17-18.31-.17-2.94-1-4.41-2.94-4.84a12.21,12.21,0,0,0-3.11-.34c-.86,0-1.38-.18-1.38-.87,0-.52.69-.69,2.07-.69,3.29,0,8.73.26,11.23.26,2.17,0,7.26-.26,10.54-.26,1.13,0,1.82.17,1.82.69,0,.69-.52.87-1.38.87a14.86,14.86,0,0,0-2.6.25c-2.33.44-3,1.91-3.19,4.93-.17,2.76-.17,5.18-.17,18.31V125.2c0,8.38,0,15.21.34,18.92.26,2.33.87,3.89,3.46,4.23a35,35,0,0,0,4.4.35c1,0,1.39.26,1.39.69,0,.61-.7.87-1.65.87-5.7,0-11.14-.26-13.47-.26-2,0-7.43.26-10.89.26-1.12,0-1.73-.26-1.73-.87,0-.43.35-.69,1.38-.69a13.72,13.72,0,0,0,3.12-.35c1.72-.34,2.24-1.81,2.5-4.32.43-3.62.43-10.45.43-18.83Z"/><path class="cls-2" d="M711,127.71c-.43,0-.6.17-.78.69l-4.66,12.35a16.67,16.67,0,0,0-1.3,5.27c0,1.56.78,2.68,3.46,2.68H709c1,0,1.3.17,1.3.69,0,.69-.52.87-1.47.87-2.76,0-6.48-.26-9.16-.26-.95,0-5.7.26-10.19.26-1.12,0-1.64-.18-1.64-.87,0-.52.34-.69,1-.69s2-.09,2.68-.17c4-.52,5.62-3.46,7.35-7.78L720.56,86.5C721.6,84,722.12,83,723,83s1.3.78,2.16,2.76c2.07,4.76,15.9,40,21.43,53.14,3.28,7.77,5.78,9,7.6,9.41a18.86,18.86,0,0,0,3.63.35c.69,0,1.12.09,1.12.69s-.78.87-4,.87-9.42,0-16.33-.18c-1.56-.08-2.59-.08-2.59-.69s.34-.69,1.2-.78a1.4,1.4,0,0,0,.78-2l-6.91-18.32a.82.82,0,0,0-.86-.6Zm17.63-4.32c.43,0,.51-.26.43-.52l-7.78-21.34c-.08-.35-.17-.78-.43-.78s-.43.43-.52.78l-7.95,21.25c-.08.35,0,.61.35.61Z"/></g></g></svg>