<svg xmlns="http://www.w3.org/2000/svg" viewBox="0 0 632.23 186.52"><defs><style>.cls-1{fill:#6dadde;}.cls-2{fill:#fff;}</style></defs><title>Asset 9</title><g id="Layer_2" data-name="Layer 2"><g id="Layer_1-2" data-name="Layer 1"><polyline class="cls-1" points="109.39 78.57 42.35 39.43 109.39 156.72"/><polyline class="cls-1" points="109.39 76.27 43.14 37.44 109.13 0"/><polyline class="cls-1" points="111.72 78.57 178.75 39.43 111.72 156.72"/><polyline class="cls-1" points="111.72 76.27 177.97 37.44 111.97 0"/><polyline class="cls-1" points="52.06 127.6 102 156.76 52.06 69.38"/><polyline class="cls-1" points="52.06 129.69 101.42 158.62 52.25 186.52"/><polyline class="cls-1" points="49.94 127.6 0 156.76 49.94 69.38"/><polyline class="cls-1" points="49.94 129.69 0.58 158.62 49.75 186.52"/><polyline class="cls-1" points="171.16 127.6 221.1 156.76 171.16 69.38"/><polyline class="cls-1" points="171.16 129.69 220.52 158.62 171.35 186.52"/><polyline class="cls-1" points="169.05 127.6 119.11 156.76 169.05 69.38"/><polyline class="cls-1" points="169.05 129.69 119.69 158.62 168.86 186.52"/><path class="cls-2" d="M248.74,151.42v-1.16c3.54,0,5.3-1.26,5.3-3.77V115.76c0-2.52-1.76-3.78-5.3-3.78v-1.07h15.82a37.17,37.17,0,0,1,13.55,2.22,17.87,17.87,0,0,1,8.64,6.78,20.14,20.14,0,0,1,3,11.29q0,9.56-6.3,14.88T265,151.42Zm11.62-5.48c0,2,1,3,2.95,3a25.41,25.41,0,0,0,10.86-2.09,14.51,14.51,0,0,0,6.66-6.08,19,19,0,0,0,2.24-9.46,19.38,19.38,0,0,0-2.38-9.94,15,15,0,0,0-6.72-6.15,23.24,23.24,0,0,0-10-2,5.65,5.65,0,0,0-3,.48c-.42.33-.62,1.19-.62,2.58Z"/><path class="cls-2" d="M318.68,139.78a14.73,14.73,0,0,0,1.57,2.94,2.5,2.5,0,0,0,2.17.93v.74h-10v-.74a6.82,6.82,0,0,0,2.16-.37,1,1,0,0,0,.6-1,11.87,11.87,0,0,0-1-3.06l-1.39-3.33H302.43s-.35.91-1,2.64a12.18,12.18,0,0,0-1,3.4q0,1.68,2.64,1.68v.74h-7.78v-.74a3.4,3.4,0,0,0,2.58-1.65,43.76,43.76,0,0,0,2.56-5.22l7.94-18.94h.8Zm-15.56-5.47h9.16l-4.6-10.83Z"/><path class="cls-2" d="M345.18,144.39H334.24v-.74c2.31,0,3.46-.81,3.46-2.42V120h-2.82a12.5,12.5,0,0,0-2.79.24,2.87,2.87,0,0,0-1.67,1.32,9.2,9.2,0,0,0-1.13,3.46h-1l.28-6.62h22.23l.24,6.62h-1a9.08,9.08,0,0,0-1.1-3.46,2.9,2.9,0,0,0-1.67-1.32,12.32,12.32,0,0,0-2.76-.24h-2.83v21.21c0,1.61,1.16,2.42,3.46,2.42Z"/><path class="cls-2" d="M381.55,139.78a14.65,14.65,0,0,0,1.58,2.94,2.49,2.49,0,0,0,2.16.93v.74h-10v-.74a6.74,6.74,0,0,0,2.15-.37,1,1,0,0,0,.6-1,11.87,11.87,0,0,0-1-3.06l-1.39-3.33H365.31l-1,2.64a12,12,0,0,0-1,3.4q0,1.68,2.64,1.68v.74h-7.77v-.74a3.38,3.38,0,0,0,2.57-1.65,42.24,42.24,0,0,0,2.56-5.22l7.95-18.94h.8ZM366,134.31h9.15l-4.6-10.83Z"/><path class="cls-2" d="M395,138.74h1.42a17.83,17.83,0,0,0,4.84,7.8,11.21,11.21,0,0,0,7.93,3.07,7.2,7.2,0,0,0,5.13-2,6.46,6.46,0,0,0,2.07-4.88,6.31,6.31,0,0,0-.37-2.22,7.94,7.94,0,0,0-2.89-4.36q-2.09-1.52-7-4.4a29.45,29.45,0,0,1-7.11-5.39,9.43,9.43,0,0,1-2.27-6.51,9.72,9.72,0,0,1,1.46-5.29,9.89,9.89,0,0,1,4-3.6,11.75,11.75,0,0,1,5.46-1.28,17.07,17.07,0,0,1,5.49,1,19.7,19.7,0,0,0,3.42,1c.89,0,1.58-.65,2-2H420l1.27,13h-1.55a15.67,15.67,0,0,0-4-7.57,9.73,9.73,0,0,0-7.19-3.05,6.71,6.71,0,0,0-4.6,1.58,5.61,5.61,0,0,0-1.78,4.45q0,3.7,6.55,7.64,6.16,3.67,8.52,5.25a14.06,14.06,0,0,1,3.78,3.86,10.85,10.85,0,0,1,.08,11.28,11.52,11.52,0,0,1-4.49,4.16,14.3,14.3,0,0,1-6.91,1.59,19.64,19.64,0,0,1-5.56-1,20.25,20.25,0,0,0-4-1c-1,0-1.64.66-1.81,2h-1.34Z"/><path class="cls-2" d="M455.57,126.71h-.87a12.18,12.18,0,0,0-1.75-3.85,8.15,8.15,0,0,0-2.89-2.56,8.38,8.38,0,0,0-3.94-.91,7.79,7.79,0,0,0-6.92,3.39,15.8,15.8,0,0,0-2.29,9,15.24,15.24,0,0,0,1,5.5,9.64,9.64,0,0,0,3.14,4.26,8.26,8.26,0,0,0,5.17,1.64,12.11,12.11,0,0,0,4.95-.94,16.14,16.14,0,0,0,4.87-3.88l.69.76a14.93,14.93,0,0,1-5.28,4.44,13,13,0,0,1-5.62,1.35,14.8,14.8,0,0,1-6.95-1.6,11.5,11.5,0,0,1-4.84-4.66,15.6,15.6,0,0,1-.77-12.62,12.6,12.6,0,0,1,7.1-7.19,14.29,14.29,0,0,1,5.4-1,12.25,12.25,0,0,1,2.62.24q1,.24,2.46.72a7.19,7.19,0,0,0,1.94.48q1,0,1.62-1.44h.8Z"/><path class="cls-2" d="M477.65,141.23q0,2.42,3.81,2.42v.74H469.81v-.74c2.54,0,3.82-.81,3.82-2.42v-19.7c0-1.62-1.28-2.42-3.82-2.42v-.69h11.65v.69c-2.54,0-3.81.8-3.81,2.42Z"/><path class="cls-2" d="M495,144.39v-.74c2.3,0,3.46-.81,3.46-2.42v-19.7c0-1.62-1.16-2.42-3.46-2.42v-.69H515.9V124H515c-.59-2.69-2.08-4-4.49-4H504.2c-1.16,0-1.73.52-1.73,1.57v8.4H508a6.86,6.86,0,0,0,3.6-.8,3.14,3.14,0,0,0,1.31-2.94h.8v9.21h-.8c0-2.56-1.63-3.85-4.91-3.85h-5.52v9.68c0,1,.33,1.54,1,1.54h5.25a18.14,18.14,0,0,0,3.36-.25,5.29,5.29,0,0,0,2.57-1.34,9.09,9.09,0,0,0,2.24-3.41H518l-1.74,6.62Z"/><path class="cls-2" d="M554.47,144.91h-.63l-17.45-21.6v17.92q0,2.42,3.79,2.42v.74h-9.32v-.74q3.85,0,3.85-2.42V121.3l-.33-.41a8.24,8.24,0,0,0-1.58-1.45,5,5,0,0,0-1.94-.33v-.69h6.74l15.08,18.83V121.53c0-1.62-1.26-2.42-3.79-2.42v-.69h9.38v.69c-2.53,0-3.8.8-3.8,2.42Z"/><path class="cls-2" d="M594.8,126.71h-.87a12.16,12.16,0,0,0-1.74-3.85,8.26,8.26,0,0,0-2.9-2.56,8.35,8.35,0,0,0-3.94-.91,7.8,7.8,0,0,0-6.92,3.39,15.88,15.88,0,0,0-2.29,9,15.24,15.24,0,0,0,1,5.5,9.64,9.64,0,0,0,3.14,4.26,8.26,8.26,0,0,0,5.17,1.64,12.11,12.11,0,0,0,4.95-.94,16.14,16.14,0,0,0,4.87-3.88l.69.76a15,15,0,0,1-5.27,4.44,13,13,0,0,1-5.63,1.35,14.83,14.83,0,0,1-7-1.6,11.47,11.47,0,0,1-4.83-4.66,14.18,14.18,0,0,1-1.76-7.22,14.61,14.61,0,0,1,1-5.4,12.87,12.87,0,0,1,2.82-4.35,12.62,12.62,0,0,1,4.28-2.84,14.31,14.31,0,0,1,5.41-1,12.08,12.08,0,0,1,2.61.24q1,.24,2.46.72a7.27,7.27,0,0,0,1.94.48q1,0,1.62-1.44h.8Z"/><path class="cls-2" d="M609.05,144.39v-.74c2.3,0,3.46-.81,3.46-2.42v-19.7c0-1.62-1.16-2.42-3.46-2.42v-.69H630V124h-.87q-.87-4-4.49-4h-6.34c-1.16,0-1.73.52-1.73,1.57v8.4h5.53a6.85,6.85,0,0,0,3.59-.8,3.14,3.14,0,0,0,1.31-2.94h.8v9.21H627c0-2.56-1.63-3.85-4.9-3.85h-5.53v9.68c0,1,.33,1.54,1,1.54h5.25a18.14,18.14,0,0,0,3.36-.25,5.29,5.29,0,0,0,2.57-1.34,9.09,9.09,0,0,0,2.24-3.41H632l-1.73,6.62Z"/><path class="cls-2" d="M191.77,65.68c0-14.78,9.76-33.87,35.68-33.87,21.51,0,34.91,12.53,34.91,32.31s-13.83,35.42-35.77,35.42C201.79,99.54,191.77,81,191.77,65.68Zm58.49,1.64C250.26,48,239.12,36,225,36c-9.94,0-21.26,5.53-21.26,27,0,18,9.94,32.22,26.53,32.22C236.26,95.22,250.26,92.29,250.26,67.32Z"/><path class="cls-2" d="M291.21,73.28c0,11.06,0,17,1.82,18.57,1.47,1.3,3.71,1.9,10.45,1.9,4.58,0,7.95-.08,10.11-2.41a10.94,10.94,0,0,0,2.25-5.19c.08-.78.26-1.29,1-1.29s.69.43.69,1.46a68.57,68.57,0,0,1-1.3,9.94c-.52,1.9-.95,2.33-5.44,2.33-6.22,0-10.71-.17-14.6-.26s-7-.26-10.54-.26c-1,0-2.85,0-4.93.09s-4.23.17-6,.17c-1.12,0-1.72-.26-1.72-.86,0-.43.34-.69,1.38-.69a13.7,13.7,0,0,0,3.11-.35c1.73-.34,2.16-2.24,2.5-4.75.44-3.63.44-10.45.44-18.4V58.07c0-13.13,0-15.55-.18-18.31-.17-2.94-.86-4.32-3.71-4.93a13,13,0,0,0-2.85-.26c-.95,0-1.47-.17-1.47-.77s.6-.78,1.9-.78c4.06,0,9.5.26,11.84.26,2.07,0,8.38-.26,11.75-.26,1.2,0,1.81.17,1.81.78s-.52.77-1.56.77a23.44,23.44,0,0,0-3.37.26c-2.33.43-3,1.9-3.19,4.93-.18,2.76-.18,5.18-.18,18.31Z"/><path class="cls-2" d="M338.91,76a18.21,18.21,0,0,0-2-9.07c-.6-1.39-12.18-20.39-15.2-24.89a21.06,21.06,0,0,0-6-6.3,8.71,8.71,0,0,0-3.62-1.13c-.7,0-1.3-.17-1.3-.77s.6-.78,1.64-.78c1.56,0,8,.26,10.89.26,1.81,0,5.35-.26,9.24-.26.87,0,1.3.26,1.3.78s-.61.6-1.9,1a1.55,1.55,0,0,0-1.21,1.55,8.06,8.06,0,0,0,1,2.94c1.21,2.59,13.31,23.41,14.69,25.83.87-2.07,11.75-21.08,13-23.76a11.16,11.16,0,0,0,1.21-4.49,2.06,2.06,0,0,0-1.81-2.16c-.78-.17-1.56-.35-1.56-.86s.43-.78,1.47-.78c2.85,0,5.62.26,8.12.26,1.9,0,7.6-.26,9.24-.26,1,0,1.56.17,1.56.69s-.69.86-1.64.86a9.32,9.32,0,0,0-3.8,1c-1.82.86-2.77,1.9-4.67,4.23-2.85,3.46-14.94,23.76-16.5,27.48a20.61,20.61,0,0,0-1.3,8.64V83c0,1.38,0,5,.26,8.64.18,2.51.95,4.41,3.55,4.75a34.93,34.93,0,0,0,4.32.35c.95,0,1.38.26,1.38.69,0,.6-.69.86-1.82.86-5.44,0-10.88-.26-13.21-.26-2.16,0-7.61.26-10.8.26-1.21,0-1.9-.17-1.9-.86,0-.43.43-.69,1.38-.69a13.4,13.4,0,0,0,3-.35c1.73-.34,2.51-2.24,2.68-4.75.26-3.63.26-7.26.26-8.64Z"/><path class="cls-2" d="M389.63,33.36c.26-1.46.77-2.24,1.47-2.24s1.21.43,2.33,2.68L417,82.52l23.5-49.33c.69-1.38,1.13-2.07,1.9-2.07s1.3.86,1.56,2.68l7.86,53.39c.78,5.44,1.64,8,4.23,8.72a17.31,17.31,0,0,0,5.36.87c.78,0,1.38.08,1.38.6,0,.69-1,1-2.24,1-2.16,0-14.09-.26-17.54-.52-2-.17-2.51-.43-2.51-1s.35-.69.95-1,.78-1.29.44-3.71l-5.19-38h-.34L417.53,93.41c-2,4.06-2.42,4.84-3.19,4.84s-1.65-1.73-3-4.32c-2.07-4-8.9-17.2-9.93-19.61-.78-1.82-6-12.71-9-19.18h-.34l-4.5,34.38a34.87,34.87,0,0,0-.26,4.06c0,1.64,1.13,2.42,2.6,2.77a17,17,0,0,0,3.62.43c.7,0,1.3.17,1.3.6,0,.78-.78,1-2.07,1-3.63,0-7.52-.26-9.07-.26s-5.79.26-8.56.26c-.86,0-1.55-.17-1.55-1,0-.43.52-.6,1.38-.6a11,11,0,0,0,2.59-.26c2.42-.52,3.11-3.89,3.54-6.83Z"/><path class="cls-2" d="M476.55,58.07c0-13.13,0-15.55-.18-18.31-.17-2.94-.86-4.32-3.71-4.93a18,18,0,0,0-3.37-.26c-1,0-1.47-.17-1.47-.77s.6-.78,1.9-.78c4.58,0,10,.26,12.44.26,3.54,0,8.55-.26,12.53-.26,10.8,0,14.69,3.63,16.07,4.92a15,15,0,0,1,4.32,10.28c0,12.27-9,20.91-21.26,20.91a13.71,13.71,0,0,1-1.81-.08c-.43-.09-1-.18-1-.78s.61-1,2.42-1c4.84,0,11.58-5.45,11.58-14.26,0-2.85-.26-8.64-5.1-13a12.84,12.84,0,0,0-8.64-3.37,12.21,12.21,0,0,0-3.37.35c-.43.17-.69.69-.69,1.64V73.28c0,8,0,14.77.43,18.49.26,2.42.78,4.32,3.37,4.66a35,35,0,0,0,4.41.35c.95,0,1.38.26,1.38.69,0,.6-.69.86-1.64.86-5.7,0-11.15-.26-13.39-.26-2,0-7.43.26-10.89.26-1.12,0-1.72-.26-1.72-.86,0-.43.34-.69,1.38-.69a13.7,13.7,0,0,0,3.11-.35c1.73-.34,2.16-2.24,2.5-4.75.44-3.63.44-10.45.44-18.4Z"/><path class="cls-2" d="M533.14,58.07c0-13.13,0-15.55-.18-18.31-.17-2.94-1-4.41-2.93-4.84a12.26,12.26,0,0,0-3.11-.35c-.87,0-1.39-.17-1.39-.86,0-.52.69-.69,2.08-.69,3.28,0,8.72.26,11.23.26,2.16,0,7.26-.26,10.54-.26,1.12,0,1.81.17,1.81.69,0,.69-.51.86-1.38.86a14.92,14.92,0,0,0-2.59.26c-2.33.43-3,1.9-3.2,4.93-.17,2.76-.17,5.18-.17,18.31V73.28c0,8.38,0,15.2.35,18.92.25,2.33.86,3.89,3.45,4.23a35,35,0,0,0,4.41.35c1,0,1.38.26,1.38.69,0,.6-.69.86-1.64.86-5.7,0-11.15-.26-13.48-.26-2,0-7.43.26-10.89.26-1.12,0-1.72-.26-1.72-.86,0-.43.34-.69,1.38-.69a13.63,13.63,0,0,0,3.11-.35c1.73-.34,2.25-1.81,2.51-4.32.43-3.63.43-10.45.43-18.83Z"/><path class="cls-2" d="M584.29,75.78c-.44,0-.61.18-.78.7l-4.67,12.35a16.81,16.81,0,0,0-1.29,5.27c0,1.56.77,2.68,3.45,2.68h1.3c1,0,1.29.17,1.29.69,0,.69-.51.86-1.46.86-2.77,0-6.48-.26-9.16-.26-1,0-5.7.26-10.2.26-1.12,0-1.64-.17-1.64-.86,0-.52.35-.69,1-.69s2-.09,2.68-.17c4-.52,5.61-3.46,7.34-7.78l21.69-54.26c1-2.5,1.55-3.45,2.41-3.45s1.3.78,2.16,2.76c2.08,4.75,15.9,40,21.43,53.14,3.28,7.77,5.79,9,7.6,9.41a18.94,18.94,0,0,0,3.63.35c.69,0,1.12.08,1.12.69s-.77.86-4,.86-9.42,0-16.33-.17c-1.55-.09-2.59-.09-2.59-.69s.34-.69,1.21-.78a1.41,1.41,0,0,0,.78-2l-6.91-18.31a.85.85,0,0,0-.87-.61Zm17.62-4.32c.43,0,.52-.26.43-.51l-7.77-21.34c-.09-.35-.18-.78-.44-.78s-.43.43-.51.78l-8,21.25c-.09.34,0,.6.34.6Z"/></g></g></svg>