<svg xmlns="http://www.w3.org/2000/svg" viewBox="0 0 690.02 291.43"><defs><style>.cls-1{fill:#6dadde;}.cls-2{fill:#2d2222;}</style></defs><title>Asset 4</title><g id="Layer_2" data-name="Layer 2"><g id="Layer_1-2" data-name="Layer 1"><polyline class="cls-1" points="170.92 122.77 66.18 61.61 170.92 244.87"/><polyline class="cls-1" points="170.92 119.18 67.4 58.5 170.52 0"/><polyline class="cls-1" points="174.56 122.77 279.3 61.61 174.56 244.87"/><polyline class="cls-1" points="174.56 119.18 278.08 58.5 174.96 0"/><polyline class="cls-1" points="81.34 199.37 159.37 244.94 81.34 108.4"/><polyline class="cls-1" points="81.34 202.64 158.46 247.84 81.64 291.43"/><polyline class="cls-1" points="78.03 199.37 0 244.94 78.03 108.4"/><polyline class="cls-1" points="78.03 202.64 0.91 247.84 77.74 291.43"/><polyline class="cls-1" points="267.44 199.37 345.48 244.94 267.44 108.4"/><polyline class="cls-1" points="267.44 202.64 344.57 247.84 267.74 291.43"/><polyline class="cls-1" points="264.14 199.37 186.1 244.94 264.14 108.4"/><polyline class="cls-1" points="264.14 202.64 187.01 247.84 263.84 291.43"/><path class="cls-2" d="M370.44,176.67v-1c2.94,0,4.42-1,4.42-3.14V147c0-2.1-1.48-3.15-4.42-3.15v-.89h13.18a31,31,0,0,1,11.29,1.85,14.83,14.83,0,0,1,7.2,5.65,16.76,16.76,0,0,1,2.49,9.41q0,8-5.25,12.4T384,176.67Zm9.68-4.57a2.18,2.18,0,0,0,2.46,2.47,21.3,21.3,0,0,0,9.05-1.74,12.14,12.14,0,0,0,5.55-5.07,15.89,15.89,0,0,0,1.86-7.88,16.23,16.23,0,0,0-2-8.29,12.46,12.46,0,0,0-5.6-5.12,19.44,19.44,0,0,0-8.34-1.7,4.74,4.74,0,0,0-2.49.4c-.34.27-.51,1-.51,2.14Z"/><path class="cls-2" d="M428.72,167a12.2,12.2,0,0,0,1.31,2.45,2.08,2.08,0,0,0,1.8.77v.62h-8.34v-.62a5.56,5.56,0,0,0,1.79-.31.79.79,0,0,0,.51-.79,10.1,10.1,0,0,0-.81-2.56l-1.16-2.77h-8.64l-.87,2.2a10,10,0,0,0-.85,2.83c0,.93.73,1.4,2.2,1.4v.62h-6.48v-.62a2.76,2.76,0,0,0,2.14-1.37,35,35,0,0,0,2.14-4.35l6.62-15.78h.67Zm-13-4.56h7.63l-3.83-9Z"/><path class="cls-2" d="M450.8,170.81h-9.11v-.62c1.92,0,2.88-.67,2.88-2V150.5h-2.35a10.67,10.67,0,0,0-2.33.2,2.42,2.42,0,0,0-1.39,1.1,7.82,7.82,0,0,0-.94,2.89h-.82l.24-5.52H455.5l.2,5.52h-.82a7.53,7.53,0,0,0-.91-2.89,2.41,2.41,0,0,0-1.4-1.1,10.33,10.33,0,0,0-2.29-.2h-2.36v17.67c0,1.35,1,2,2.88,2Z"/><path class="cls-2" d="M481.11,167a12.73,12.73,0,0,0,1.31,2.45,2.11,2.11,0,0,0,1.81.77v.62h-8.35v-.62a5.63,5.63,0,0,0,1.8-.31.79.79,0,0,0,.5-.79,10.1,10.1,0,0,0-.81-2.56l-1.16-2.77h-8.64s-.29.76-.86,2.2a10.18,10.18,0,0,0-.86,2.83c0,.93.74,1.4,2.2,1.4v.62h-6.48v-.62a2.78,2.78,0,0,0,2.15-1.37,36.86,36.86,0,0,0,2.13-4.35l6.62-15.78h.67Zm-13-4.56h7.63l-3.83-9Z"/><path class="cls-2" d="M492.34,166.1h1.19a14.88,14.88,0,0,0,4,6.5,9.34,9.34,0,0,0,6.61,2.56,6,6,0,0,0,4.27-1.64,5.4,5.4,0,0,0,1.73-4.07,5.24,5.24,0,0,0-.31-1.85,6.61,6.61,0,0,0-2.41-3.63q-1.74-1.28-5.8-3.67a24.58,24.58,0,0,1-5.92-4.49,7.84,7.84,0,0,1-1.9-5.43,8.14,8.14,0,0,1,1.22-4.4,8.3,8.3,0,0,1,3.29-3,9.78,9.78,0,0,1,4.55-1.07,14.5,14.5,0,0,1,4.58.82,15.65,15.65,0,0,0,2.85.82c.74,0,1.31-.54,1.71-1.64h1.13l1.05,10.87h-1.29a13.06,13.06,0,0,0-3.36-6.31,8.12,8.12,0,0,0-6-2.54,5.6,5.6,0,0,0-3.83,1.31,4.7,4.7,0,0,0-1.49,3.71q0,3.09,5.46,6.37c3.42,2,5.79,3.49,7.1,4.37a11.8,11.8,0,0,1,3.15,3.22,8.53,8.53,0,0,1,1.35,4.9,8.65,8.65,0,0,1-1.29,4.5,9.59,9.59,0,0,1-3.74,3.47,11.94,11.94,0,0,1-5.75,1.32,16.17,16.17,0,0,1-4.64-.82,17.62,17.62,0,0,0-3.35-.82c-.87,0-1.37.55-1.51,1.64h-1.12Z"/><path class="cls-2" d="M542.79,156.08h-.72a10,10,0,0,0-1.46-3.21,6.73,6.73,0,0,0-2.41-2.13,6.93,6.93,0,0,0-3.28-.77,6.51,6.51,0,0,0-5.77,2.83,13.19,13.19,0,0,0-1.91,7.5,12.41,12.41,0,0,0,.85,4.58,7.94,7.94,0,0,0,2.61,3.55A6.82,6.82,0,0,0,535,169.8a10.25,10.25,0,0,0,4.13-.78,13.48,13.48,0,0,0,4.05-3.24l.57.64a12.52,12.52,0,0,1-4.39,3.7,10.79,10.79,0,0,1-4.69,1.12,12.35,12.35,0,0,1-5.79-1.33,9.65,9.65,0,0,1-4-3.88,13,13,0,0,1-.64-10.52,10.43,10.43,0,0,1,5.92-6,11.85,11.85,0,0,1,4.5-.83,10.45,10.45,0,0,1,2.18.19c.55.14,1.23.34,2,.6a5.86,5.86,0,0,0,1.61.4c.57,0,1-.4,1.35-1.19h.67Z"/><path class="cls-2" d="M561.19,168.17c0,1.35,1.06,2,3.18,2v.62h-9.71v-.62c2.12,0,3.18-.67,3.18-2V151.76c0-1.35-1.06-2-3.18-2v-.57h9.71v.57c-2.12,0-3.18.67-3.18,2Z"/><path class="cls-2" d="M575.64,170.81v-.62c1.92,0,2.88-.67,2.88-2V151.76c0-1.35-1-2-2.88-2v-.57h17.43v4.65h-.73c-.49-2.24-1.73-3.37-3.74-3.37h-5.28c-1,0-1.45.44-1.45,1.31v7h4.61a5.8,5.8,0,0,0,3-.66,2.64,2.64,0,0,0,1.09-2.45h.67v7.67h-.67q0-3.21-4.09-3.21h-4.61v8.06c0,.86.28,1.29.82,1.29h4.38a15.29,15.29,0,0,0,2.8-.21,4.38,4.38,0,0,0,2.14-1.11,7.53,7.53,0,0,0,1.86-2.85h.92l-1.44,5.52Z"/><path class="cls-2" d="M625.21,171.24h-.53l-14.54-18v14.93c0,1.35,1.05,2,3.16,2v.62h-7.77v-.62c2.14,0,3.22-.67,3.22-2v-16.6l-.29-.34a6.42,6.42,0,0,0-1.31-1.21,4,4,0,0,0-1.62-.28v-.57h5.62l12.57,15.69v-13.1c0-1.35-1.05-2-3.16-2v-.57h7.81v.57c-2.11,0-3.16.67-3.16,2Z"/><path class="cls-2" d="M658.82,156.08h-.73a9.78,9.78,0,0,0-1.45-3.21,6.73,6.73,0,0,0-2.41-2.13,7,7,0,0,0-3.29-.77,6.49,6.49,0,0,0-5.76,2.83,13.19,13.19,0,0,0-1.91,7.5,12.61,12.61,0,0,0,.84,4.58,8,8,0,0,0,2.62,3.55A6.8,6.8,0,0,0,651,169.8a10.16,10.16,0,0,0,4.12-.78,13.38,13.38,0,0,0,4.06-3.24l.57.64a12.61,12.61,0,0,1-4.39,3.7,10.82,10.82,0,0,1-4.69,1.12,12.35,12.35,0,0,1-5.79-1.33,9.65,9.65,0,0,1-4-3.88,12.87,12.87,0,0,1-.64-10.52,10.6,10.6,0,0,1,2.34-3.63,10.74,10.74,0,0,1,3.57-2.36,11.92,11.92,0,0,1,4.5-.83,10.38,10.38,0,0,1,2.18.19c.56.14,1.24.34,2,.6a6,6,0,0,0,1.62.4c.56,0,1-.4,1.35-1.19h.67Z"/><path class="cls-2" d="M670.69,170.81v-.62c1.92,0,2.88-.67,2.88-2V151.76c0-1.35-1-2-2.88-2v-.57h17.43v4.65h-.73c-.48-2.24-1.73-3.37-3.74-3.37h-5.28c-1,0-1.45.44-1.45,1.31v7h4.61a5.8,5.8,0,0,0,3-.66,2.64,2.64,0,0,0,1.09-2.45h.67v7.67h-.67q0-3.21-4.09-3.21h-4.61v8.06c0,.86.28,1.29.83,1.29h4.37a15.29,15.29,0,0,0,2.8-.21,4.38,4.38,0,0,0,2.14-1.11,7.53,7.53,0,0,0,1.86-2.85h.92l-1.44,5.52Z"/><path class="cls-2" d="M323,105.21C323,92.9,331.1,77,352.7,77c17.93,0,29.09,10.45,29.09,26.94S370.27,133.44,352,133.44C331.31,133.44,323,118,323,105.21Zm48.75,1.37c0-16.13-9.29-26.14-21.1-26.14-8.28,0-17.71,4.61-17.71,22.54,0,15,8.28,26.86,22.1,26.86C360,129.84,371.71,127.39,371.71,106.58Z"/><path class="cls-2" d="M405.83,111.55c0,9.21,0,14.18,1.52,15.48,1.22,1.08,3.09,1.58,8.71,1.58,3.81,0,6.62-.07,8.42-2a9.09,9.09,0,0,0,1.88-4.32c.07-.65.21-1.08.79-1.08s.57.36.57,1.22a56.33,56.33,0,0,1-1.08,8.28c-.43,1.59-.79,2-4.53,2-5.19,0-8.93-.15-12.17-.22s-5.83-.22-8.79-.22c-.79,0-2.37,0-4.1.08s-3.53.14-5,.14c-.94,0-1.44-.22-1.44-.72s.29-.58,1.15-.58a12,12,0,0,0,2.59-.28c1.44-.29,1.8-1.88,2.09-4,.36-3,.36-8.72.36-15.34V98.87c0-10.94,0-13-.14-15.26-.14-2.45-.72-3.6-3.1-4.1a10.25,10.25,0,0,0-2.37-.22c-.8,0-1.23-.14-1.23-.65s.51-.65,1.59-.65c3.38,0,7.92.22,9.86.22,1.73,0,7-.22,9.79-.22,1,0,1.52.15,1.52.65s-.44.65-1.3.65a18.5,18.5,0,0,0-2.81.22c-1.94.36-2.52,1.58-2.66,4.1-.15,2.3-.15,4.32-.15,15.26Z"/><path class="cls-2" d="M445.58,113.78a15.22,15.22,0,0,0-1.66-7.56c-.5-1.15-10.15-17-12.67-20.74a17.57,17.57,0,0,0-5-5.25,7.27,7.27,0,0,0-3-.94c-.58,0-1.09-.14-1.09-.65s.51-.65,1.37-.65c1.3,0,6.7.22,9.08.22,1.51,0,4.46-.22,7.7-.22.72,0,1.08.22,1.08.65s-.5.51-1.58.79a1.31,1.31,0,0,0-1,1.3,6.7,6.7,0,0,0,.86,2.45c1,2.16,11.09,19.51,12.24,21.53.72-1.73,9.8-17.57,10.8-19.8a9.42,9.42,0,0,0,1-3.75,1.72,1.72,0,0,0-1.51-1.8c-.65-.14-1.3-.29-1.3-.72s.36-.65,1.23-.65c2.37,0,4.68.22,6.77.22,1.58,0,6.33-.22,7.7-.22.79,0,1.3.15,1.3.58s-.58.72-1.37.72a7.88,7.88,0,0,0-3.17.86c-1.51.72-2.3,1.59-3.89,3.53-2.37,2.88-12.45,19.8-13.75,22.9a17.21,17.21,0,0,0-1.08,7.2v5.9c0,1.16,0,4.18.22,7.21.14,2.08.79,3.67,2.95,4a31.16,31.16,0,0,0,3.6.28c.79,0,1.15.22,1.15.58s-.58.72-1.51.72c-4.54,0-9.07-.22-11-.22s-6.33.22-9,.22c-1,0-1.58-.14-1.58-.72,0-.36.36-.58,1.15-.58a11.89,11.89,0,0,0,2.52-.28c1.44-.29,2.09-1.88,2.23-4,.22-3,.22-6,.22-7.21Z"/><path class="cls-2" d="M487.84,78.28c.22-1.22.65-1.87,1.23-1.87s1,.36,1.94,2.23l19.66,40.61,19.58-41.11c.58-1.16.94-1.73,1.59-1.73s1.08.72,1.29,2.23l6.56,44.5c.64,4.54,1.36,6.63,3.52,7.27a14.36,14.36,0,0,0,4.47.72c.65,0,1.15.08,1.15.51s-.86.79-1.87.79c-1.8,0-11.74-.22-14.62-.43-1.65-.15-2.09-.36-2.09-.79s.29-.58.8-.8.64-1.08.36-3.09l-4.32-31.69h-.29l-15.7,32.7c-1.66,3.38-2,4-2.66,4s-1.37-1.44-2.52-3.6c-1.73-3.31-7.42-14.33-8.29-16.35-.64-1.51-5-10.58-7.48-16h-.29l-3.75,28.66a29.16,29.16,0,0,0-.21,3.38c0,1.37.93,2,2.16,2.3a13.72,13.72,0,0,0,3,.36c.58,0,1.08.15,1.08.51,0,.65-.65.79-1.73.79-3,0-6.26-.22-7.56-.22s-4.82.22-7.13.22c-.72,0-1.29-.14-1.29-.79,0-.36.43-.51,1.15-.51a9.49,9.49,0,0,0,2.16-.21c2-.43,2.59-3.24,2.95-5.69Z"/><path class="cls-2" d="M560.27,98.87c0-10.94,0-13-.14-15.26-.15-2.45-.72-3.6-3.1-4.1a14.25,14.25,0,0,0-2.81-.22c-.79,0-1.22-.14-1.22-.65s.5-.65,1.58-.65c3.82,0,8.36.22,10.37.22,3,0,7.13-.22,10.44-.22,9,0,12.24,3,13.4,4.11a12.52,12.52,0,0,1,3.6,8.57c0,10.22-7.49,17.42-17.72,17.42a10.91,10.91,0,0,1-1.51-.07c-.36-.07-.86-.14-.86-.65s.5-.79,2-.79c4,0,9.65-4.54,9.65-11.88,0-2.38-.21-7.2-4.24-10.8a10.71,10.71,0,0,0-7.21-2.81,9.93,9.93,0,0,0-2.8.29c-.36.14-.58.57-.58,1.37v28.8c0,6.62,0,12.31.36,15.41.22,2,.65,3.6,2.81,3.89a31.18,31.18,0,0,0,3.67.28c.79,0,1.15.22,1.15.58s-.57.72-1.37.72c-4.75,0-9.28-.22-11.16-.22-1.65,0-6.19.22-9.07.22-.94,0-1.44-.22-1.44-.72s.29-.58,1.15-.58a12,12,0,0,0,2.59-.28c1.44-.29,1.81-1.88,2.09-4,.36-3,.36-8.72.36-15.34Z"/><path class="cls-2" d="M607.43,98.87c0-10.94,0-13-.14-15.26-.15-2.45-.87-3.67-2.45-4a10,10,0,0,0-2.59-.29c-.72,0-1.15-.14-1.15-.72,0-.43.57-.58,1.72-.58,2.74,0,7.28.22,9.37.22,1.8,0,6-.22,8.78-.22.94,0,1.51.15,1.51.58,0,.58-.43.72-1.15.72a11.63,11.63,0,0,0-2.16.22c-1.94.36-2.52,1.58-2.66,4.1-.15,2.3-.15,4.32-.15,15.26v12.68c0,7,0,12.67.29,15.77.22,1.94.72,3.24,2.88,3.53a31.18,31.18,0,0,0,3.67.28c.79,0,1.15.22,1.15.58s-.57.72-1.36.72c-4.76,0-9.29-.22-11.24-.22-1.65,0-6.19.22-9.07.22-.94,0-1.44-.22-1.44-.72s.29-.58,1.15-.58a12,12,0,0,0,2.59-.28c1.44-.29,1.88-1.52,2.09-3.6.36-3,.36-8.72.36-15.7Z"/><path class="cls-2" d="M650.06,113.64c-.36,0-.51.14-.65.57l-3.89,10.3a14,14,0,0,0-1.08,4.39c0,1.3.65,2.23,2.88,2.23h1.08c.86,0,1.08.15,1.08.58s-.43.72-1.22.72c-2.31,0-5.4-.22-7.64-.22-.79,0-4.75.22-8.49.22-.94,0-1.37-.14-1.37-.72s.29-.58.86-.58,1.66-.07,2.24-.14c3.31-.43,4.68-2.88,6.12-6.48l18.07-45.22c.86-2.09,1.3-2.88,2-2.88s1.08.65,1.8,2.3c1.72,4,13.24,33.34,17.85,44.29,2.74,6.48,4.83,7.49,6.34,7.85a16.22,16.22,0,0,0,3,.28c.58,0,.94.08.94.58s-.65.72-3.31.72-7.85,0-13.61-.14c-1.3-.08-2.16-.08-2.16-.58s.29-.58,1-.65a1.17,1.17,0,0,0,.64-1.65l-5.76-15.27a.69.69,0,0,0-.72-.5Zm14.69-3.6c.36,0,.43-.22.36-.44l-6.48-17.78c-.08-.29-.15-.65-.36-.65s-.36.36-.44.65l-6.62,17.71c-.07.29,0,.51.29.51Z"/></g></g></svg>