<svg xmlns="http://www.w3.org/2000/svg" viewBox="0 0 744.79 359.79"><defs><style>.cls-1{fill:#6dadde;}.cls-2{fill:#2d2222;}</style></defs><title>Asset 4</title><g id="Layer_2" data-name="Layer 2"><g id="Layer_1-2" data-name="Layer 1"><polyline class="cls-1" points="211.01 151.57 81.7 76.06 211.01 302.31"/><polyline class="cls-1" points="211.01 147.13 83.21 72.23 210.51 0"/><polyline class="cls-1" points="215.51 151.57 344.81 76.06 215.51 302.31"/><polyline class="cls-1" points="215.51 147.13 343.3 72.23 216 0"/><polyline class="cls-1" points="100.42 246.14 196.76 302.39 100.42 133.83"/><polyline class="cls-1" points="100.42 250.17 195.63 305.98 100.79 359.79"/><polyline class="cls-1" points="96.34 246.14 0 302.39 96.34 133.83"/><polyline class="cls-1" points="96.34 250.17 1.12 305.98 95.97 359.79"/><polyline class="cls-1" points="330.18 246.14 426.51 302.39 330.18 133.83"/><polyline class="cls-1" points="330.18 250.17 425.39 305.98 330.54 359.79"/><polyline class="cls-1" points="326.1 246.14 229.76 302.39 326.1 133.83"/><polyline class="cls-1" points="326.1 250.17 230.88 305.98 325.73 359.79"/><path class="cls-2" d="M425.39,189.19v-1c2.95,0,4.42-1,4.42-3.14v-25.6c0-2.1-1.47-3.16-4.42-3.16v-.89h13.18a30.79,30.79,0,0,1,11.29,1.86,14.94,14.94,0,0,1,7.21,5.64,16.86,16.86,0,0,1,2.48,9.41q0,8-5.25,12.4T439,189.19Zm9.68-4.57a2.18,2.18,0,0,0,2.46,2.47,21.14,21.14,0,0,0,9.05-1.75,12.06,12.06,0,0,0,5.55-5.06,15.82,15.82,0,0,0,1.87-7.89,16.19,16.19,0,0,0-2-8.28,12.49,12.49,0,0,0-5.61-5.12,19.23,19.23,0,0,0-8.34-1.7,4.67,4.67,0,0,0-2.48.4c-.35.27-.52,1-.52,2.14Z"/><path class="cls-2" d="M483.67,179.48a12.43,12.43,0,0,0,1.31,2.45,2.09,2.09,0,0,0,1.81.78v.62h-8.35v-.62a5.5,5.5,0,0,0,1.79-.31.8.8,0,0,0,.51-.8,10,10,0,0,0-.81-2.55l-1.16-2.78h-8.64s-.29.77-.86,2.21a10.09,10.09,0,0,0-.86,2.83c0,.93.73,1.4,2.2,1.4v.62h-6.48v-.62a2.83,2.83,0,0,0,2.15-1.38,35.73,35.73,0,0,0,2.13-4.34L475,161.2h.67Zm-13-4.56h7.63l-3.84-9Z"/><path class="cls-2" d="M505.76,183.33h-9.12v-.62c1.92,0,2.88-.68,2.88-2V163h-2.35a9.92,9.92,0,0,0-2.32.2,2.37,2.37,0,0,0-1.4,1.1,7.72,7.72,0,0,0-.93,2.88h-.82l.23-5.52h18.53l.2,5.52h-.82a7.39,7.39,0,0,0-.92-2.88,2.35,2.35,0,0,0-1.39-1.1,9.85,9.85,0,0,0-2.3-.2h-2.35v17.67c0,1.34,1,2,2.88,2Z"/><path class="cls-2" d="M536.06,179.48a11.84,11.84,0,0,0,1.32,2.45,2.06,2.06,0,0,0,1.8.78v.62h-8.34v-.62a5.56,5.56,0,0,0,1.79-.31.79.79,0,0,0,.5-.8,10,10,0,0,0-.81-2.55l-1.16-2.78h-8.63l-.87,2.21a9.94,9.94,0,0,0-.85,2.83c0,.93.73,1.4,2.2,1.4v.62h-6.48v-.62a2.82,2.82,0,0,0,2.14-1.38,34,34,0,0,0,2.14-4.34l6.62-15.79h.66Zm-13-4.56h7.63l-3.83-9Z"/><path class="cls-2" d="M547.3,178.62h1.18a15,15,0,0,0,4,6.5,9.4,9.4,0,0,0,6.61,2.55A6,6,0,0,0,563.4,186a5.37,5.37,0,0,0,1.72-4.06,5.48,5.48,0,0,0-.3-1.85,6.69,6.69,0,0,0-2.42-3.64c-1.15-.84-3.09-2.06-5.8-3.67a24.53,24.53,0,0,1-5.92-4.48,7.9,7.9,0,0,1-1.9-5.43,8.17,8.17,0,0,1,1.22-4.41,8.39,8.39,0,0,1,3.3-3,9.73,9.73,0,0,1,4.54-1.06,14.28,14.28,0,0,1,4.59.82,15.43,15.43,0,0,0,2.84.82c.75,0,1.32-.55,1.71-1.64h1.13l1,10.86h-1.29a12.86,12.86,0,0,0-3.36-6.3,8.08,8.08,0,0,0-6-2.55,5.56,5.56,0,0,0-3.83,1.32,4.68,4.68,0,0,0-1.49,3.71q0,3.09,5.46,6.36c3.43,2,5.79,3.5,7.11,4.38a12,12,0,0,1,3.15,3.22,8.53,8.53,0,0,1,1.35,4.9,8.65,8.65,0,0,1-1.29,4.5,9.81,9.81,0,0,1-3.74,3.47,12,12,0,0,1-5.76,1.32,16.17,16.17,0,0,1-4.64-.82,16.65,16.65,0,0,0-3.35-.82c-.87,0-1.37.55-1.51,1.64h-1.11Z"/><path class="cls-2" d="M597.75,168.6H597a10,10,0,0,0-1.45-3.21,6.71,6.71,0,0,0-5.7-2.9,6.51,6.51,0,0,0-5.77,2.82,13.23,13.23,0,0,0-1.91,7.5,12.68,12.68,0,0,0,.85,4.59,8,8,0,0,0,2.61,3.55,6.9,6.9,0,0,0,4.31,1.37,10,10,0,0,0,4.13-.79,13.46,13.46,0,0,0,4-3.23l.58.63a12.48,12.48,0,0,1-4.4,3.71,10.78,10.78,0,0,1-4.68,1.12,12.36,12.36,0,0,1-5.79-1.34,9.51,9.51,0,0,1-4-3.87,11.92,11.92,0,0,1-1.47-6,12,12,0,0,1,.82-4.5,10.73,10.73,0,0,1,2.35-3.62,10.52,10.52,0,0,1,3.57-2.37,12,12,0,0,1,4.5-.83,10.31,10.31,0,0,1,2.18.2c.55.13,1.24.33,2.05.6a6.22,6.22,0,0,0,1.62.4c.56,0,1-.4,1.34-1.2h.67Z"/><path class="cls-2" d="M616.14,180.69c0,1.34,1.06,2,3.18,2v.62h-9.7v-.62c2.11,0,3.17-.68,3.17-2V164.27c0-1.34-1.06-2-3.17-2v-.58h9.7v.58q-3.18,0-3.18,2Z"/><path class="cls-2" d="M630.59,183.33v-.62c1.93,0,2.89-.68,2.89-2V164.27c0-1.34-1-2-2.89-2v-.58H648v4.65h-.73q-.72-3.36-3.74-3.36h-5.28c-1,0-1.44.43-1.44,1.3v7h4.6a5.7,5.7,0,0,0,3-.67,2.62,2.62,0,0,0,1.09-2.45h.67v7.68h-.67q0-3.21-4.09-3.21h-4.6v8.06c0,.86.27,1.29.82,1.29H642a15.29,15.29,0,0,0,2.8-.21,4.49,4.49,0,0,0,2.14-1.12,7.41,7.41,0,0,0,1.87-2.84h.91l-1.44,5.52Z"/><path class="cls-2" d="M680.16,183.76h-.52l-14.55-18v14.93c0,1.34,1.06,2,3.17,2v.62h-7.77v-.62c2.14,0,3.21-.68,3.21-2V164.08l-.28-.34a6.58,6.58,0,0,0-1.32-1.2,3.79,3.79,0,0,0-1.61-.28v-.58h5.61l12.58,15.69v-13.1c0-1.34-1.06-2-3.17-2v-.58h7.82v.58c-2.11,0-3.17.67-3.17,2Z"/><path class="cls-2" d="M713.77,168.6h-.72a10,10,0,0,0-1.46-3.21,6.85,6.85,0,0,0-2.41-2.14,6.93,6.93,0,0,0-3.28-.76,6.51,6.51,0,0,0-5.77,2.82,13.23,13.23,0,0,0-1.91,7.5,12.47,12.47,0,0,0,.85,4.59,8,8,0,0,0,2.61,3.55,6.88,6.88,0,0,0,4.31,1.37,10.08,10.08,0,0,0,4.13-.79,13.58,13.58,0,0,0,4-3.23l.58.63a12.56,12.56,0,0,1-4.4,3.71,10.79,10.79,0,0,1-4.69,1.12,12.41,12.41,0,0,1-5.79-1.34,9.57,9.57,0,0,1-4-3.87A13,13,0,0,1,695.2,168a10.51,10.51,0,0,1,5.92-6,12,12,0,0,1,4.5-.83,10.38,10.38,0,0,1,2.18.2c.55.13,1.23.33,2.05.6a6.27,6.27,0,0,0,1.61.4q.85,0,1.35-1.2h.67Z"/><path class="cls-2" d="M725.64,183.33v-.62c1.93,0,2.89-.68,2.89-2V164.27c0-1.34-1-2-2.89-2v-.58h17.43v4.65h-.73q-.72-3.36-3.74-3.36h-5.28c-1,0-1.44.43-1.44,1.3v7h4.6a5.7,5.7,0,0,0,3-.67,2.62,2.62,0,0,0,1.09-2.45h.67v7.68h-.67q0-3.21-4.09-3.21h-4.6v8.06c0,.86.27,1.29.82,1.29h4.37a15.29,15.29,0,0,0,2.8-.21,4.57,4.57,0,0,0,2.15-1.12,7.52,7.52,0,0,0,1.86-2.84h.91l-1.44,5.52Z"/><path class="cls-2" d="M373.41,120.13c0-12.31,8.13-28.23,29.73-28.23,17.93,0,29.09,10.44,29.09,26.93s-11.52,29.52-29.81,29.52C381.76,148.35,373.41,132.87,373.41,120.13Zm48.74,1.37c0-16.13-9.28-26.14-21.09-26.14-8.28,0-17.72,4.61-17.72,22.54,0,15,8.28,26.86,22.11,26.86C410.49,144.76,422.15,142.31,422.15,121.5Z"/><path class="cls-2" d="M456.28,126.47c0,9.21,0,14.18,1.51,15.48,1.23,1.08,3.1,1.58,8.71,1.58,3.82,0,6.63-.07,8.43-2a9,9,0,0,0,1.87-4.32c.07-.64.22-1.08.79-1.08s.58.36.58,1.23a57.73,57.73,0,0,1-1.08,8.28c-.43,1.58-.79,1.94-4.54,1.94-5.18,0-8.93-.14-12.17-.21s-5.83-.22-8.78-.22c-.79,0-2.38,0-4.11.07s-3.52.15-5,.15c-.94,0-1.44-.22-1.44-.72s.28-.58,1.15-.58a11.38,11.38,0,0,0,2.59-.29c1.44-.28,1.8-1.87,2.09-4,.36-3,.36-8.71.36-15.33V113.79c0-10.94,0-13-.15-15.26-.14-2.45-.72-3.6-3.09-4.11a11,11,0,0,0-2.38-.21c-.79,0-1.22-.15-1.22-.65s.5-.65,1.58-.65c3.39,0,7.92.22,9.87.22,1.72,0,7-.22,9.79-.22,1,0,1.51.14,1.51.65s-.43.65-1.29.65a19.6,19.6,0,0,0-2.81.21c-1.95.36-2.52,1.59-2.67,4.11-.14,2.3-.14,4.32-.14,15.26Z"/><path class="cls-2" d="M496,128.7a15.34,15.34,0,0,0-1.65-7.56c-.51-1.16-10.16-17-12.68-20.74a17.62,17.62,0,0,0-5-5.26,7.43,7.43,0,0,0-3-.93c-.58,0-1.08-.15-1.08-.65s.5-.65,1.37-.65c1.29,0,6.7.22,9.07.22,1.51,0,4.47-.22,7.71-.22.72,0,1.08.22,1.08.65s-.51.5-1.59.79a1.3,1.3,0,0,0-1,1.3,6.63,6.63,0,0,0,.87,2.45c1,2.16,11.09,19.51,12.24,21.52.72-1.72,9.79-17.56,10.8-19.8a9.34,9.34,0,0,0,1-3.74,1.72,1.72,0,0,0-1.51-1.8c-.65-.15-1.3-.29-1.3-.72s.36-.65,1.22-.65c2.38,0,4.68.22,6.77.22,1.59,0,6.34-.22,7.71-.22.79,0,1.29.14,1.29.58s-.57.72-1.37.72a7.71,7.71,0,0,0-3.16.86c-1.51.72-2.31,1.58-3.89,3.53-2.38,2.88-12.46,19.8-13.75,22.9a17.21,17.21,0,0,0-1.08,7.2v5.9c0,1.15,0,4.18.21,7.2.15,2.09.79,3.68,2.95,4a29.27,29.27,0,0,0,3.6.29c.8,0,1.16.22,1.16.58s-.58.72-1.52.72c-4.53,0-9.07-.22-11-.22s-6.34.22-9,.22c-1,0-1.59-.15-1.59-.72,0-.36.36-.58,1.15-.58a11.13,11.13,0,0,0,2.52-.29c1.44-.28,2.09-1.87,2.24-4,.21-3,.21-6.05.21-7.2Z"/><path class="cls-2" d="M538.29,93.2c.21-1.23.65-1.87,1.22-1.87s1,.36,2,2.23l19.65,40.61L580.7,93.05c.57-1.15.94-1.72,1.58-1.72s1.08.72,1.3,2.23l6.55,44.5c.65,4.53,1.37,6.62,3.53,7.27a14.35,14.35,0,0,0,4.46.72c.65,0,1.16.07,1.16.51s-.87.79-1.88.79c-1.8,0-11.73-.22-14.61-.43-1.66-.15-2.09-.36-2.09-.8s.29-.57.79-.79.65-1.08.36-3.1l-4.32-31.68h-.29l-15.69,32.69c-1.66,3.39-2,4-2.67,4s-1.37-1.43-2.52-3.59c-1.73-3.32-7.42-14.33-8.28-16.35-.65-1.51-5-10.59-7.49-16h-.29L536.56,140a29.44,29.44,0,0,0-.22,3.39c0,1.37.94,2,2.16,2.3a13.86,13.86,0,0,0,3,.36c.57,0,1.08.15,1.08.51,0,.64-.65.79-1.73.79-3,0-6.27-.22-7.56-.22s-4.83.22-7.13.22c-.72,0-1.3-.15-1.3-.79,0-.36.44-.51,1.16-.51a9.54,9.54,0,0,0,2.16-.21c2-.44,2.59-3.25,2.95-5.69Z"/><path class="cls-2" d="M610.72,113.79c0-10.94,0-13-.15-15.26-.14-2.45-.72-3.6-3.09-4.11a15.26,15.26,0,0,0-2.81-.21c-.79,0-1.22-.15-1.22-.65s.5-.65,1.58-.65c3.82,0,8.35.22,10.37.22,3,0,7.13-.22,10.44-.22,9,0,12.24,3,13.39,4.11a12.47,12.47,0,0,1,3.6,8.56c0,10.23-7.48,17.43-17.71,17.43a10.91,10.91,0,0,1-1.51-.07c-.36-.07-.87-.15-.87-.65s.51-.79,2-.79c4,0,9.65-4.54,9.65-11.88,0-2.38-.22-7.2-4.25-10.81A10.7,10.7,0,0,0,623,96a10.49,10.49,0,0,0-2.81.28c-.36.15-.57.58-.57,1.37v28.81c0,6.62,0,12.31.36,15.4.21,2,.64,3.61,2.8,3.89a29.32,29.32,0,0,0,3.68.29c.79,0,1.15.22,1.15.58s-.58.72-1.37.72c-4.75,0-9.29-.22-11.16-.22-1.66,0-6.19.22-9.07.22-.94,0-1.44-.22-1.44-.72s.28-.58,1.15-.58a11.38,11.38,0,0,0,2.59-.29c1.44-.28,1.8-1.87,2.09-4,.36-3,.36-8.71.36-15.33Z"/><path class="cls-2" d="M657.88,113.79c0-10.94,0-13-.15-15.26-.14-2.45-.86-3.68-2.44-4a10.58,10.58,0,0,0-2.6-.28c-.72,0-1.15-.15-1.15-.72s.58-.58,1.73-.58c2.74,0,7.27.22,9.36.22,1.8,0,6-.22,8.79-.22.93,0,1.51.14,1.51.58s-.43.72-1.15.72a12.47,12.47,0,0,0-2.16.21c-2,.36-2.52,1.59-2.67,4.11-.14,2.3-.14,4.32-.14,15.26v12.68c0,7,0,12.67.29,15.76.21,2,.72,3.25,2.88,3.53a29,29,0,0,0,3.67.29c.79,0,1.15.22,1.15.58s-.58.72-1.37.72c-4.75,0-9.29-.22-11.23-.22-1.66,0-6.19.22-9.07.22-.94,0-1.44-.22-1.44-.72s.28-.58,1.15-.58a11.38,11.38,0,0,0,2.59-.29c1.44-.28,1.87-1.51,2.09-3.6.36-3,.36-8.71.36-15.69Z"/><path class="cls-2" d="M700.5,128.55c-.36,0-.5.15-.65.58L696,139.43a14,14,0,0,0-1.08,4.39c0,1.3.64,2.23,2.88,2.23h1.08c.86,0,1.08.15,1.08.58s-.44.72-1.23.72c-2.3,0-5.4-.22-7.63-.22-.79,0-4.75.22-8.5.22-.93,0-1.37-.15-1.37-.72s.29-.58.87-.58a22.23,22.23,0,0,0,2.23-.14c3.31-.43,4.68-2.88,6.12-6.48l18.07-45.22c.87-2.09,1.3-2.88,2-2.88s1.08.64,1.8,2.3c1.73,4,13.25,33.34,17.86,44.28,2.73,6.48,4.82,7.49,6.34,7.85a15.48,15.48,0,0,0,3,.29c.58,0,.94.07.94.58s-.65.72-3.32.72-7.84,0-13.61-.15c-1.29-.07-2.16-.07-2.16-.57s.29-.58,1-.65a1.17,1.17,0,0,0,.65-1.66l-5.76-15.26a.7.7,0,0,0-.72-.51Zm14.69-3.6c.36,0,.43-.21.36-.43l-6.48-17.78c-.07-.29-.14-.65-.36-.65s-.36.36-.43.65l-6.63,17.71c-.07.29,0,.5.29.5Z"/></g></g></svg>