<svg xmlns="http://www.w3.org/2000/svg" xmlns:xlink="http://www.w3.org/1999/xlink" viewBox="0 0 608.5 500.69"><defs><style>.cls-1,.cls-10,.cls-11,.cls-12,.cls-2,.cls-3,.cls-4,.cls-5,.cls-6,.cls-7,.cls-8,.cls-9{stroke:#fff;stroke-miterlimit:10;}.cls-1{fill:url(#linear-gradient);}.cls-2{fill:url(#linear-gradient-2);}.cls-3{fill:url(#linear-gradient-3);}.cls-4{fill:url(#linear-gradient-4);}.cls-5{fill:url(#linear-gradient-5);}.cls-6{fill:url(#linear-gradient-6);}.cls-7{fill:url(#linear-gradient-7);}.cls-8{fill:url(#linear-gradient-8);}.cls-9{fill:url(#linear-gradient-9);}.cls-10{fill:url(#linear-gradient-10);}.cls-11{fill:url(#linear-gradient-11);}.cls-12{fill:url(#linear-gradient-12);}</style><linearGradient id="linear-gradient" x1="130.33" y1="201.13" x2="478.33" y2="201.13" gradientUnits="userSpaceOnUse"><stop offset="0" stop-color="#cb2027"/><stop offset="1" stop-color="#7ebae5" stop-opacity="0"/></linearGradient><linearGradient id="linear-gradient-2" x1="132.33" y1="101.03" x2="476.33" y2="101.03" xlink:href="#linear-gradient"/><linearGradient id="linear-gradient-3" x1="132.39" y1="250.52" x2="303.83" y2="250.52" xlink:href="#linear-gradient"/><linearGradient id="linear-gradient-4" x1="304.62" y1="250.61" x2="475.96" y2="250.61" xlink:href="#linear-gradient"/><linearGradient id="linear-gradient-5" x1="347" y1="350.08" x2="607.5" y2="350.08" xlink:href="#linear-gradient"/><linearGradient id="linear-gradient-6" x1="349.36" y1="313.22" x2="476.9" y2="313.22" xlink:href="#linear-gradient"/><linearGradient id="linear-gradient-7" x1="477.75" y1="313.29" x2="605.37" y2="313.29" xlink:href="#linear-gradient"/><linearGradient id="linear-gradient-8" x1="349" y1="424.91" x2="605.5" y2="424.91" xlink:href="#linear-gradient"/><linearGradient id="linear-gradient-9" x1="1" y1="349.98" x2="261.51" y2="349.98" xlink:href="#linear-gradient"/><linearGradient id="linear-gradient-10" x1="3.37" y1="313.13" x2="130.9" y2="313.13" xlink:href="#linear-gradient"/><linearGradient id="linear-gradient-11" x1="131.75" y1="313.2" x2="259.37" y2="313.2" xlink:href="#linear-gradient"/><linearGradient id="linear-gradient-12" x1="3" y1="424.82" x2="259.51" y2="424.82" xlink:href="#linear-gradient"/></defs><title>asset_7</title><g id="Layer_2" data-name="Layer 2"><g id="Layer_1-2" data-name="Layer 1"><polygon class="cls-1" points="478.33 101.03 304.58 0.72 304.33 0.58 130.33 101.03 130.73 101.27 130.69 101.29 304.33 401.68 477.69 101.4 478.33 101.03"/><polygon class="cls-2" points="304.33 1.73 476.33 101.03 304.33 200.34 132.33 101.03 304.33 1.73"/><polygon class="cls-3" points="303.62 201.09 303.83 398.81 132.39 102.22 303.62 201.09"/><polygon class="cls-4" points="304.83 398.81 304.63 201.32 475.96 102.4 304.83 398.81"/><polygon class="cls-5" points="607.08 424.67 607.09 424.66 477.68 200.79 477.25 200.04 347.63 424.55 347 424.91 477 499.97 477.25 500.11 606.75 425.34 607.5 424.91 607.08 424.67"/><polygon class="cls-6" points="476.9 349.91 349.36 423.55 476.75 202.9 476.9 349.91"/><polygon class="cls-7" points="477.9 350.09 477.75 202.91 605.37 423.68 477.9 350.09"/><polygon class="cls-8" points="477.25 498.96 349 424.91 477.25 350.86 605.5 424.91 477.25 498.96"/><polygon class="cls-9" points="261.09 424.57 131.69 200.7 131.25 199.95 1.63 424.45 1 424.82 131 499.88 131.25 500.02 260.75 425.25 261.5 424.82 261.08 424.57 261.09 424.57"/><polygon class="cls-10" points="130.91 349.82 3.37 423.45 130.75 202.81 130.91 349.82"/><polygon class="cls-11" points="131.91 349.99 131.75 202.81 259.37 423.59 131.91 349.99"/><polygon class="cls-12" points="131.25 498.87 3 424.82 131.25 350.77 259.5 424.82 131.25 498.87"/></g></g></svg>