<svg id="Layer_1" data-name="Layer 1" xmlns="http://www.w3.org/2000/svg" viewBox="0 0 605.81 500.8"><defs><style>.cls-1,.cls-2,.cls-3,.cls-4{fill:none;stroke:#000;stroke-miterlimit:10;}.cls-1,.cls-3{stroke-width:0.25px;}.cls-2,.cls-3{fill-rule:evenodd;}</style></defs><title>centralni</title><line class="cls-1" x1="173.35" y1="75.46" x2="173.35" y2="175.34"/><line class="cls-1" x1="216.35" y1="50.4" x2="216.56" y2="250.28"/><line class="cls-1" x1="259.35" y1="25.29" x2="259.35" y2="325.45"/><line class="cls-1" x1="303.35" y1="0.41" x2="303.35" y2="400.27"/><line class="cls-1" x1="346.35" y1="25.52" x2="346.35" y2="325.22"/><line class="cls-1" x1="389.35" y1="50.4" x2="389.78" y2="250.15"/><path class="cls-1" d="M569.22,358.74" transform="translate(-136.41 -283.25)"/><line class="cls-1" x1="259.35" y1="325.45" x2="324.51" y2="362.94"/><line class="cls-1" x1="216.56" y1="250.28" x2="346.35" y2="325.22"/><line class="cls-1" x1="173.35" y1="175.34" x2="368.04" y2="287.54"/><line class="cls-1" x1="129.85" y1="100.46" x2="389.78" y2="250.15"/><line class="cls-1" x1="173.35" y1="75.46" x2="411.28" y2="212.64"/><line class="cls-1" x1="216.35" y1="50.4" x2="432.8" y2="175.37"/><line class="cls-1" x1="259.35" y1="25.29" x2="454.43" y2="137.91"/><line class="cls-1" x1="303.06" y1="0.58" x2="476.05" y2="100.46"/><line class="cls-1" x1="346.35" y1="325.22" x2="281.43" y2="362.69"/><line class="cls-1" x1="389.78" y1="250.15" x2="259.35" y2="325.45"/><line class="cls-1" x1="432.8" y1="175.37" x2="238.01" y2="287.57"/><line class="cls-1" x1="476.05" y1="100.46" x2="216.56" y2="250.28"/><line class="cls-1" x1="432.8" y1="75.49" x2="194.83" y2="212.88"/><line class="cls-1" x1="389.35" y1="50.4" x2="173.35" y2="175.34"/><line class="cls-1" x1="346.35" y1="25.52" x2="151.55" y2="137.99"/><polygon class="cls-2" points="130.06 100.46 303.06 200.34 476.05 100.46 303.06 0.58 130.06 100.46"/><path class="cls-2" d="M439.26,483.71" transform="translate(-136.41 -283.25)"/><path class="cls-2" d="M266.26,383.71" transform="translate(-136.41 -283.25)"/><path class="cls-2" d="M439.26,483.71" transform="translate(-136.41 -283.25)"/><path class="cls-3" d="M439.47,683.35" transform="translate(-136.41 -283.25)"/><path class="cls-3" d="M612.47,383.71" transform="translate(-136.41 -283.25)"/><line class="cls-4" x1="302.85" y1="200.46" x2="303.06" y2="400.1"/><path class="cls-3" d="M439.47,683.35" transform="translate(-136.41 -283.25)"/><path class="cls-3" d="M266.26,383.71" transform="translate(-136.41 -283.25)"/><polyline class="cls-2" points="129.85 100.46 303.06 400.1 476.05 100.46"/><line class="cls-1" x1="388.8" y1="350.72" x2="388.8" y2="450.72"/><line class="cls-1" x1="432.8" y1="276.72" x2="432.8" y2="476.72"/><line class="cls-1" x1="475.8" y1="201.72" x2="475.8" y2="499.72"/><line class="cls-1" x1="518.8" y1="276.72" x2="518.8" y2="476.72"/><line class="cls-1" x1="561.8" y1="350.72" x2="561.8" y2="451.72"/><line class="cls-1" x1="367.47" y1="388.94" x2="518.89" y2="476.36"/><line class="cls-1" x1="389.14" y1="350.88" x2="562.14" y2="451.39"/><line class="cls-1" x1="409.95" y1="313.59" x2="604.97" y2="425.59"/><line class="cls-1" x1="432.39" y1="276.3" x2="562.14" y2="350.88"/><line class="cls-1" x1="453.53" y1="238.87" x2="518.89" y2="276.68"/><line class="cls-1" x1="583.76" y1="388.97" x2="432.39" y2="476.36"/><line class="cls-1" x1="562.14" y1="350.88" x2="389.14" y2="450.32"/><line class="cls-1" x1="540.39" y1="313.66" x2="346.31" y2="425.59"/><line class="cls-1" x1="518.89" y1="276.68" x2="389.14" y2="350.88"/><line class="cls-1" x1="497.26" y1="238.87" x2="432.39" y2="276.3"/><polygon class="cls-2" points="604.82 425.59 475.56 350.97 346.31 425.59 475.56 500.22 604.82 425.59"/><path class="cls-2" d="M612.13,634.13" transform="translate(-136.41 -283.25)"/><path class="cls-2" d="M741.38,708.84" transform="translate(-136.41 -283.25)"/><path class="cls-2" d="M612.13,634.13" transform="translate(-136.41 -283.25)"/><path class="cls-3" d="M612,485" transform="translate(-136.41 -283.25)"/><path class="cls-3" d="M482.72,708.85" transform="translate(-136.41 -283.25)"/><line class="cls-4" x1="475.3" y1="350.72" x2="475.15" y2="201.72"/><path class="cls-3" d="M612,485" transform="translate(-136.41 -283.25)"/><path class="cls-3" d="M741.38,708.84" transform="translate(-136.41 -283.25)"/><polyline class="cls-2" points="604.97 425.59 475.56 201.72 346.31 425.59"/><line class="cls-1" x1="43.49" y1="350.72" x2="43.49" y2="450.72"/><line class="cls-1" x1="87.49" y1="276.72" x2="87.49" y2="476.72"/><line class="cls-1" x1="130.49" y1="201.72" x2="130.49" y2="499.72"/><line class="cls-1" x1="173.49" y1="276.72" x2="173.49" y2="476.72"/><line class="cls-1" x1="216.49" y1="350.72" x2="216.49" y2="451.72"/><line class="cls-1" x1="22.16" y1="388.94" x2="173.58" y2="476.36"/><line class="cls-1" x1="43.83" y1="350.88" x2="216.83" y2="451.39"/><line class="cls-1" x1="64.64" y1="313.59" x2="259.66" y2="425.59"/><line class="cls-1" x1="87.08" y1="276.3" x2="216.83" y2="350.88"/><line class="cls-1" x1="108.22" y1="238.87" x2="173.58" y2="276.68"/><line class="cls-1" x1="238.45" y1="388.97" x2="87.08" y2="476.36"/><line class="cls-1" x1="216.83" y1="350.88" x2="43.83" y2="450.32"/><line class="cls-1" x1="195.08" y1="313.66" x2="1" y2="425.59"/><line class="cls-1" x1="173.58" y1="276.68" x2="43.83" y2="350.88"/><line class="cls-1" x1="151.95" y1="238.87" x2="87.08" y2="276.3"/><polygon class="cls-2" points="259.5 425.59 130.25 350.97 1 425.59 130.25 500.22 259.5 425.59"/><path class="cls-2" d="M266.82,634.13" transform="translate(-136.41 -283.25)"/><path class="cls-2" d="M396.07,708.84" transform="translate(-136.41 -283.25)"/><path class="cls-2" d="M266.82,634.13" transform="translate(-136.41 -283.25)"/><path class="cls-3" d="M266.66,485" transform="translate(-136.41 -283.25)"/><path class="cls-3" d="M137.41,708.85" transform="translate(-136.41 -283.25)"/><line class="cls-4" x1="129.99" y1="350.72" x2="129.84" y2="201.72"/><path class="cls-3" d="M266.66,485" transform="translate(-136.41 -283.25)"/><path class="cls-3" d="M396.07,708.84" transform="translate(-136.41 -283.25)"/><polyline class="cls-2" points="259.66 425.59 130.25 201.72 1 425.59"/></svg>