<svg xmlns="http://www.w3.org/2000/svg" xmlns:xlink="http://www.w3.org/1999/xlink" viewBox="0 0 606.5 499.53"><defs><style>.cls-1{fill:url(#linear-gradient);}.cls-2{fill:url(#linear-gradient-2);}.cls-3{fill:url(#linear-gradient-3);}.cls-4{fill:url(#linear-gradient-4);}.cls-5{fill:url(#linear-gradient-5);}.cls-6{fill:url(#linear-gradient-6);}.cls-7{fill:url(#linear-gradient-7);}.cls-8{fill:url(#linear-gradient-8);}.cls-9{fill:url(#linear-gradient-9);}.cls-10{fill:url(#linear-gradient-10);}.cls-11{fill:url(#linear-gradient-11);}.cls-12{fill:url(#linear-gradient-12);}</style><linearGradient id="linear-gradient" x1="129.33" y1="200.55" x2="477.33" y2="200.55" gradientUnits="userSpaceOnUse"><stop offset="0" stop-color="#fff"/><stop offset="1" stop-color="#e4eaee"/></linearGradient><linearGradient id="linear-gradient-2" x1="131.33" y1="100.46" x2="475.33" y2="100.46" xlink:href="#linear-gradient"/><linearGradient id="linear-gradient-3" x1="131.39" y1="249.94" x2="302.83" y2="249.94" xlink:href="#linear-gradient"/><linearGradient id="linear-gradient-4" x1="303.62" y1="250.03" x2="474.96" y2="250.03" xlink:href="#linear-gradient"/><linearGradient id="linear-gradient-5" x1="346" y1="349.5" x2="606.5" y2="349.5" xlink:href="#linear-gradient"/><linearGradient id="linear-gradient-6" x1="348.36" y1="312.65" x2="475.9" y2="312.65" xlink:href="#linear-gradient"/><linearGradient id="linear-gradient-7" x1="476.75" y1="312.72" x2="604.37" y2="312.72" xlink:href="#linear-gradient"/><linearGradient id="linear-gradient-8" x1="348" y1="424.33" x2="604.5" y2="424.33" xlink:href="#linear-gradient"/><linearGradient id="linear-gradient-9" x1="0" y1="349.41" x2="260.5" y2="349.41" xlink:href="#linear-gradient"/><linearGradient id="linear-gradient-10" x1="2.37" y1="312.55" x2="129.9" y2="312.55" xlink:href="#linear-gradient"/><linearGradient id="linear-gradient-11" x1="130.75" y1="312.62" x2="258.37" y2="312.62" xlink:href="#linear-gradient"/><linearGradient id="linear-gradient-12" x1="2" y1="424.24" x2="258.5" y2="424.24" xlink:href="#linear-gradient"/></defs><title>dethstroke_6</title><g id="Layer_2" data-name="Layer 2"><g id="Layer_1-2" data-name="Layer 1"><polygon class="cls-1" points="477.33 100.46 303.58 0.14 303.33 0 129.33 100.46 129.73 100.69 129.69 100.71 303.33 401.1 476.69 100.82 477.33 100.46"/><polygon class="cls-2" points="303.33 1.15 475.33 100.46 303.33 199.76 131.33 100.46 303.33 1.15"/><polygon class="cls-3" points="302.62 200.51 302.83 398.23 131.39 101.64 302.62 200.51"/><polygon class="cls-4" points="303.83 398.24 303.62 200.74 474.96 101.82 303.83 398.24"/><polygon class="cls-5" points="606.08 424.09 606.09 424.08 476.68 200.21 476.25 199.46 346.63 423.97 346 424.33 476 499.39 476.25 499.54 605.75 424.77 606.5 424.33 606.08 424.09"/><polygon class="cls-6" points="475.9 349.33 348.36 422.97 475.75 202.32 475.9 349.33"/><polygon class="cls-7" points="476.9 349.51 476.75 202.33 604.37 423.1 476.9 349.51"/><polygon class="cls-8" points="476.25 498.38 348 424.33 476.25 350.29 604.5 424.33 476.25 498.38"/><polygon class="cls-9" points="260.09 423.99 130.69 200.12 130.25 199.37 0.63 423.88 0 424.24 130 499.3 130.25 499.44 259.75 424.67 260.5 424.24 260.08 424 260.09 423.99"/><polygon class="cls-10" points="129.9 349.24 2.37 422.88 129.75 202.23 129.9 349.24"/><polygon class="cls-11" points="130.91 349.42 130.75 202.24 258.37 423.01 130.91 349.42"/><polygon class="cls-12" points="130.25 498.29 2 424.24 130.25 350.19 258.5 424.24 130.25 498.29"/></g></g></svg>