<svg id="Layer_1" data-name="Layer 1" xmlns="http://www.w3.org/2000/svg" viewBox="0 0 320.6 265.48"><defs><style>.cls-1{fill:#473c97;}</style></defs><title>soma1</title><polyline class="cls-1" points="158.78 106.36 68.04 53.38 158.78 212.15"/><polyline class="cls-1" points="158.78 103.25 69.1 50.69 158.43 0"/><polyline class="cls-1" points="161.94 106.36 252.68 53.38 161.94 212.15"/><polyline class="cls-1" points="161.94 103.25 251.62 50.69 162.28 0"/><polyline class="cls-1" points="70.47 185.36 138.08 224.84 70.47 106.55"/><polyline class="cls-1" points="70.47 188.19 137.29 227.35 70.73 265.12"/><polyline class="cls-1" points="67.61 185.36 0 224.84 67.61 106.55"/><polyline class="cls-1" points="67.61 188.19 0.79 227.35 67.35 265.12"/><polyline class="cls-1" points="252.99 185.72 320.6 225.19 252.99 106.91"/><polyline class="cls-1" points="252.99 188.55 319.81 227.71 253.25 265.48"/><polyline class="cls-1" points="250.13 185.72 182.52 225.19 250.13 106.91"/><polyline class="cls-1" points="250.13 188.55 183.31 227.71 249.87 265.48"/></svg>