<svg xmlns="http://www.w3.org/2000/svg" viewBox="0 0 89.79 75.75"><defs><style>.cls-1{fill:#6dadde;}</style></defs><title>Asset 2</title><g id="Layer_2" data-name="Layer 2"><g id="Layer_1-2" data-name="Layer 1"><polyline class="cls-1" points="44.42 31.91 17.2 16.01 44.42 63.64"/><polyline class="cls-1" points="44.42 30.98 17.52 15.21 44.32 0"/><polyline class="cls-1" points="45.37 31.91 72.59 16.01 45.37 63.64"/><polyline class="cls-1" points="45.37 30.98 72.27 15.21 45.47 0"/><polyline class="cls-1" points="21.14 51.82 41.42 63.66 21.14 28.18"/><polyline class="cls-1" points="21.14 52.67 41.19 64.42 21.22 75.75"/><polyline class="cls-1" points="20.28 51.82 0 63.66 20.28 28.18"/><polyline class="cls-1" points="20.28 52.67 0.24 64.42 20.2 75.75"/><polyline class="cls-1" points="69.51 51.82 89.79 63.66 69.51 28.18"/><polyline class="cls-1" points="69.51 52.67 89.56 64.42 69.59 75.75"/><polyline class="cls-1" points="68.65 51.82 48.37 63.66 68.65 28.18"/><polyline class="cls-1" points="68.65 52.67 48.61 64.42 68.57 75.75"/></g></g></svg>