<svg xmlns="http://www.w3.org/2000/svg" viewBox="0 0 178.69 71.96"><defs><style>.cls-1{fill:#6dadde;}.cls-2{font-size:18px;font-family:TrajanPro-Bold, Trajan Pro;font-weight:700;}.cls-2,.cls-7{fill:#fff;stroke:#6dadde;stroke-miterlimit:10;stroke-width:0.25px;}.cls-3{letter-spacing:-0.01em;}.cls-4{letter-spacing:-0.04em;}.cls-5{letter-spacing:-0.01em;}.cls-6{letter-spacing:0.1em;}.cls-7{font-size:14px;font-family:AFMonogrambyKestrelMontes, All Formal Monogram by Kestrel Montes;}.cls-8{letter-spacing:-0.04em;}.cls-9{letter-spacing:-0.09em;}.cls-10{letter-spacing:-0.08em;}.cls-11{letter-spacing:0.1em;}.cls-12{letter-spacing:-0.04em;}.cls-13{letter-spacing:-0.03em;}.cls-14{letter-spacing:-0.04em;}.cls-15{letter-spacing:-0.07em;}.cls-16{letter-spacing:-0.03em;}</style></defs><title>Asset 3</title><g id="Layer_2" data-name="Layer 2"><g id="Layer_1-2" data-name="Layer 1"><polyline class="cls-1" points="42.2 30.31 16.34 15.21 42.2 60.46"/><polyline class="cls-1" points="42.2 29.43 16.64 14.45 42.1 0"/><polyline class="cls-1" points="43.1 30.31 68.96 15.21 43.1 60.46"/><polyline class="cls-1" points="43.1 29.43 68.66 14.45 43.2 0"/><polyline class="cls-1" points="20.08 49.23 39.35 60.48 20.08 26.77"/><polyline class="cls-1" points="20.08 50.03 39.13 61.2 20.16 71.96"/><polyline class="cls-1" points="19.27 49.23 0 60.48 19.27 26.77"/><polyline class="cls-1" points="19.27 50.03 0.23 61.2 19.19 71.96"/><polyline class="cls-1" points="66.03 49.23 85.3 60.48 66.03 26.77"/><polyline class="cls-1" points="66.03 50.03 85.08 61.2 66.11 71.96"/><polyline class="cls-1" points="65.22 49.23 45.95 60.48 65.22 26.77"/><polyline class="cls-1" points="65.22 50.03 46.18 61.2 65.15 71.96"/><text class="cls-2" transform="translate(74.16 29.43)"><tspan class="cls-3">O</tspan><tspan class="cls-4" x="16.51" y="0">L</tspan><tspan class="cls-5" x="26.68" y="0">Y</tspan><tspan x="38.59" y="0">MP</tspan><tspan class="cls-6" x="69.16" y="0">I</tspan><tspan x="79.09" y="0">A</tspan></text><text class="cls-7" transform="translate(83.37 43.62)"><tspan class="cls-8">D</tspan><tspan class="cls-9" x="9.97" y="0">a</tspan><tspan class="cls-10" x="17.65" y="0">t</tspan><tspan class="cls-11" x="25.26" y="0">a</tspan><tspan class="cls-12" x="35.56" y="0">S</tspan><tspan class="cls-13" x="42.6" y="0">c</tspan><tspan class="cls-14" x="51.72" y="0">i</tspan><tspan class="cls-15" x="57.83" y="0">e</tspan><tspan class="cls-16" x="66.55" y="0">n</tspan><tspan class="cls-13" x="76.44" y="0">c</tspan><tspan x="85.56" y="0">e</tspan></text></g></g></svg>